<svg width="749" height="306" viewBox="0 0 749 306" fill="none" xmlns="http://www.w3.org/2000/svg">
<path d="M79.53 45.4H86.388V46.732H81.024V51.034H86.028V52.366H81.024V58H79.53V45.4ZM96.0648 45.4H97.5048V53.806C97.5048 54.562 97.4028 55.216 97.1988 55.768C97.0068 56.32 96.7248 56.776 96.3528 57.136C95.9928 57.484 95.5548 57.742 95.0388 57.91C94.5228 58.078 93.9528 58.162 93.3288 58.162C91.8408 58.162 90.7188 57.826 89.9628 57.154C89.2068 56.482 88.8288 55.462 88.8288 54.094V45.4H90.3228V53.392C90.3228 54.028 90.3828 54.568 90.5028 55.012C90.6348 55.444 90.8268 55.798 91.0788 56.074C91.3308 56.338 91.6428 56.53 92.0148 56.65C92.3988 56.77 92.8428 56.83 93.3468 56.83C94.3188 56.83 95.0148 56.566 95.4348 56.038C95.8548 55.498 96.0648 54.616 96.0648 53.392V45.4ZM108.023 58H100.571V45.4H102.065V56.668H108.023V58ZM117.322 58H109.87V45.4H111.364V56.668H117.322V58ZM128.01 45.526C128.466 45.442 128.988 45.376 129.576 45.328C130.176 45.28 130.722 45.256 131.214 45.256C131.766 45.256 132.288 45.316 132.78 45.436C133.284 45.556 133.722 45.754 134.094 46.03C134.478 46.306 134.784 46.666 135.012 47.11C135.24 47.554 135.354 48.094 135.354 48.73C135.354 49.714 135.084 50.512 134.544 51.124C134.004 51.736 133.32 52.144 132.492 52.348L133.356 53.014L136.488 58H134.742L131.268 52.564L129.504 52.294V58H128.01V45.526ZM131.25 46.552C131.094 46.552 130.932 46.552 130.764 46.552C130.596 46.552 130.434 46.558 130.278 46.57C130.122 46.582 129.972 46.594 129.828 46.606C129.696 46.618 129.588 46.636 129.504 46.66V51.304H130.908C131.736 51.304 132.42 51.1 132.96 50.692C133.5 50.284 133.77 49.648 133.77 48.784C133.77 48.136 133.548 47.602 133.104 47.182C132.66 46.762 132.042 46.552 131.25 46.552ZM138.716 45.4H145.574V46.732H140.21V50.854H145.124V52.186H140.21V56.668H145.664V58H138.716V45.4ZM152.614 51.718H156.844V57.262C156.652 57.406 156.418 57.538 156.142 57.658C155.878 57.778 155.59 57.88 155.278 57.964C154.978 58.048 154.66 58.108 154.324 58.144C154 58.192 153.682 58.216 153.37 58.216C152.566 58.216 151.828 58.09 151.156 57.838C150.484 57.574 149.902 57.178 149.41 56.65C148.918 56.11 148.534 55.432 148.258 54.616C147.982 53.788 147.844 52.816 147.844 51.7C147.844 50.536 148.012 49.54 148.348 48.712C148.684 47.884 149.122 47.212 149.662 46.696C150.202 46.168 150.808 45.784 151.48 45.544C152.152 45.304 152.824 45.184 153.496 45.184C154.216 45.184 154.81 45.226 155.278 45.31C155.746 45.382 156.142 45.484 156.466 45.616L156.088 46.93C155.512 46.654 154.69 46.516 153.622 46.516C153.118 46.516 152.614 46.606 152.11 46.786C151.618 46.954 151.174 47.242 150.778 47.65C150.382 48.058 150.058 48.592 149.806 49.252C149.554 49.912 149.428 50.728 149.428 51.7C149.428 52.588 149.53 53.356 149.734 54.004C149.938 54.652 150.22 55.192 150.58 55.624C150.952 56.044 151.396 56.362 151.912 56.578C152.428 56.782 152.992 56.884 153.604 56.884C154.372 56.884 155.026 56.734 155.566 56.434V52.924L152.614 52.564V51.718ZM159.729 45.4H161.223V58H159.729V45.4ZM170.314 54.796C170.314 54.292 170.164 53.884 169.864 53.572C169.564 53.248 169.186 52.966 168.73 52.726C168.286 52.474 167.8 52.24 167.272 52.024C166.744 51.808 166.252 51.55 165.796 51.25C165.352 50.938 164.98 50.56 164.68 50.116C164.38 49.66 164.23 49.084 164.23 48.388C164.23 47.404 164.572 46.624 165.256 46.048C165.94 45.472 166.912 45.184 168.172 45.184C168.904 45.184 169.57 45.238 170.17 45.346C170.77 45.454 171.238 45.592 171.574 45.76L171.124 47.074C170.848 46.942 170.44 46.816 169.9 46.696C169.372 46.576 168.772 46.516 168.1 46.516C167.308 46.516 166.714 46.696 166.318 47.056C165.922 47.404 165.724 47.818 165.724 48.298C165.724 48.766 165.874 49.156 166.174 49.468C166.474 49.78 166.846 50.062 167.29 50.314C167.746 50.554 168.238 50.794 168.766 51.034C169.294 51.274 169.78 51.556 170.224 51.88C170.68 52.192 171.058 52.57 171.358 53.014C171.658 53.458 171.808 54.01 171.808 54.67C171.808 55.21 171.712 55.696 171.52 56.128C171.328 56.56 171.046 56.932 170.674 57.244C170.302 57.556 169.852 57.796 169.324 57.964C168.796 58.132 168.196 58.216 167.524 58.216C166.624 58.216 165.88 58.144 165.292 58C164.704 57.868 164.248 57.718 163.924 57.55L164.428 56.2C164.704 56.356 165.112 56.512 165.652 56.668C166.192 56.812 166.798 56.884 167.47 56.884C167.866 56.884 168.238 56.848 168.586 56.776C168.934 56.692 169.234 56.566 169.486 56.398C169.738 56.218 169.936 55.996 170.08 55.732C170.236 55.468 170.314 55.156 170.314 54.796ZM182.324 46.732H178.4V58H176.906V46.732H172.982V45.4H182.324V46.732ZM184.173 45.526C184.629 45.442 185.151 45.376 185.739 45.328C186.339 45.28 186.885 45.256 187.377 45.256C187.929 45.256 188.451 45.316 188.943 45.436C189.447 45.556 189.885 45.754 190.257 46.03C190.641 46.306 190.947 46.666 191.175 47.11C191.403 47.554 191.517 48.094 191.517 48.73C191.517 49.714 191.247 50.512 190.707 51.124C190.167 51.736 189.483 52.144 188.655 52.348L189.519 53.014L192.651 58H190.905L187.431 52.564L185.667 52.294V58H184.173V45.526ZM187.413 46.552C187.257 46.552 187.095 46.552 186.927 46.552C186.759 46.552 186.597 46.558 186.441 46.57C186.285 46.582 186.135 46.594 185.991 46.606C185.859 46.618 185.751 46.636 185.667 46.66V51.304H187.071C187.899 51.304 188.583 51.1 189.123 50.692C189.663 50.284 189.933 49.648 189.933 48.784C189.933 48.136 189.711 47.602 189.267 47.182C188.823 46.762 188.205 46.552 187.413 46.552ZM200.397 54.508H195.753L194.493 58H193.017L197.787 45.202H198.471L203.259 58H201.693L200.397 54.508ZM196.239 53.212H199.947L198.543 49.378L198.093 47.47H198.075L197.625 49.414L196.239 53.212ZM211.855 46.732H207.931V58H206.437V46.732H202.513V45.4H211.855V46.732ZM214.046 45.4H215.54V58H214.046V45.4ZM218.42 51.7C218.42 49.6 218.864 47.992 219.752 46.876C220.64 45.748 221.906 45.184 223.55 45.184C224.438 45.184 225.206 45.34 225.854 45.652C226.502 45.964 227.036 46.408 227.456 46.984C227.888 47.548 228.206 48.232 228.41 49.036C228.614 49.828 228.716 50.716 228.716 51.7C228.716 53.8 228.266 55.414 227.366 56.542C226.478 57.658 225.206 58.216 223.55 58.216C222.674 58.216 221.912 58.06 221.264 57.748C220.628 57.436 220.094 56.998 219.662 56.434C219.242 55.858 218.93 55.174 218.726 54.382C218.522 53.578 218.42 52.684 218.42 51.7ZM220.004 51.7C220.004 52.396 220.07 53.056 220.202 53.68C220.346 54.304 220.562 54.856 220.85 55.336C221.138 55.804 221.504 56.182 221.948 56.47C222.404 56.746 222.938 56.884 223.55 56.884C224.666 56.884 225.542 56.464 226.178 55.624C226.814 54.772 227.132 53.464 227.132 51.7C227.132 51.016 227.06 50.362 226.916 49.738C226.784 49.102 226.568 48.55 226.268 48.082C225.98 47.602 225.608 47.224 225.152 46.948C224.708 46.66 224.174 46.516 223.55 46.516C222.446 46.516 221.576 46.942 220.94 47.794C220.316 48.634 220.004 49.936 220.004 51.7ZM233.515 49.756L232.543 47.938H232.471L232.651 49.756V58H231.247V45.202H232.039L238.069 53.608L239.005 55.336H239.095L238.897 53.608V45.4H240.301V58.198H239.509L233.515 49.756ZM249.046 54.796C249.046 54.292 248.896 53.884 248.596 53.572C248.296 53.248 247.918 52.966 247.462 52.726C247.018 52.474 246.532 52.24 246.004 52.024C245.476 51.808 244.984 51.55 244.528 51.25C244.084 50.938 243.712 50.56 243.412 50.116C243.112 49.66 242.962 49.084 242.962 48.388C242.962 47.404 243.304 46.624 243.988 46.048C244.672 45.472 245.644 45.184 246.904 45.184C247.636 45.184 248.302 45.238 248.902 45.346C249.502 45.454 249.97 45.592 250.306 45.76L249.856 47.074C249.58 46.942 249.172 46.816 248.632 46.696C248.104 46.576 247.504 46.516 246.832 46.516C246.04 46.516 245.446 46.696 245.05 47.056C244.654 47.404 244.456 47.818 244.456 48.298C244.456 48.766 244.606 49.156 244.906 49.468C245.206 49.78 245.578 50.062 246.022 50.314C246.478 50.554 246.97 50.794 247.498 51.034C248.026 51.274 248.512 51.556 248.956 51.88C249.412 52.192 249.79 52.57 250.09 53.014C250.39 53.458 250.54 54.01 250.54 54.67C250.54 55.21 250.444 55.696 250.252 56.128C250.06 56.56 249.778 56.932 249.406 57.244C249.034 57.556 248.584 57.796 248.056 57.964C247.528 58.132 246.928 58.216 246.256 58.216C245.356 58.216 244.612 58.144 244.024 58C243.436 57.868 242.98 57.718 242.656 57.55L243.16 56.2C243.436 56.356 243.844 56.512 244.384 56.668C244.924 56.812 245.53 56.884 246.202 56.884C246.598 56.884 246.97 56.848 247.318 56.776C247.666 56.692 247.966 56.566 248.218 56.398C248.47 56.218 248.668 55.996 248.812 55.732C248.968 55.468 249.046 55.156 249.046 54.796Z" fill="#313131"/>
<path d="M593.834 59.956C594.662 59.956 595.346 59.716 595.886 59.236C596.426 58.756 596.696 58.06 596.696 57.148C596.696 56.272 596.426 55.618 595.886 55.186C595.358 54.754 594.626 54.538 593.69 54.538L592.178 54.628V48.4H597.794V49.732H593.528V53.314L594.302 53.278C595.49 53.29 596.426 53.62 597.11 54.268C597.794 54.916 598.136 55.846 598.136 57.058C598.136 57.73 598.022 58.33 597.794 58.858C597.566 59.374 597.254 59.806 596.858 60.154C596.474 60.502 596.018 60.766 595.49 60.946C594.962 61.126 594.398 61.216 593.798 61.216C593.258 61.216 592.802 61.186 592.43 61.126C592.058 61.066 591.71 60.976 591.386 60.856L591.764 59.632C592.04 59.74 592.334 59.824 592.646 59.884C592.97 59.932 593.366 59.956 593.834 59.956ZM604.021 59.956C604.429 59.956 604.807 59.896 605.155 59.776C605.503 59.656 605.803 59.482 606.055 59.254C606.307 59.014 606.505 58.732 606.649 58.408C606.793 58.084 606.865 57.73 606.865 57.346C606.865 56.506 606.613 55.882 606.109 55.474C605.617 55.066 604.933 54.862 604.057 54.862H602.725V54.34L605.317 50.344L606.145 49.552L604.975 49.732H601.411V48.4H607.837V48.922L604.975 53.224L604.345 53.746V53.782L604.957 53.656C605.437 53.668 605.881 53.758 606.289 53.926C606.697 54.082 607.051 54.316 607.351 54.628C607.651 54.928 607.885 55.294 608.053 55.726C608.221 56.146 608.305 56.626 608.305 57.166C608.305 57.814 608.191 58.39 607.963 58.894C607.735 59.398 607.423 59.824 607.027 60.172C606.643 60.508 606.187 60.766 605.659 60.946C605.131 61.126 604.573 61.216 603.985 61.216C603.445 61.216 602.959 61.174 602.527 61.09C602.095 61.006 601.717 60.898 601.393 60.766L601.771 59.488C602.047 59.62 602.371 59.734 602.743 59.83C603.127 59.914 603.553 59.956 604.021 59.956ZM610.877 51.244C610.877 50.704 610.949 50.242 611.093 49.858C611.237 49.474 611.429 49.156 611.669 48.904C611.921 48.652 612.215 48.472 612.551 48.364C612.899 48.244 613.271 48.184 613.667 48.184C614.063 48.184 614.429 48.238 614.765 48.346C615.113 48.454 615.407 48.628 615.647 48.868C615.899 49.108 616.097 49.426 616.241 49.822C616.385 50.206 616.457 50.68 616.457 51.244C616.457 51.808 616.385 52.288 616.241 52.684C616.097 53.068 615.899 53.38 615.647 53.62C615.407 53.86 615.113 54.034 614.765 54.142C614.429 54.25 614.063 54.304 613.667 54.304C613.271 54.304 612.899 54.25 612.551 54.142C612.215 54.034 611.921 53.86 611.669 53.62C611.429 53.38 611.237 53.068 611.093 52.684C610.949 52.288 610.877 51.808 610.877 51.244ZM612.209 51.244C612.209 51.964 612.335 52.48 612.587 52.792C612.851 53.104 613.211 53.26 613.667 53.26C613.895 53.26 614.099 53.23 614.279 53.17C614.459 53.098 614.609 52.99 614.729 52.846C614.861 52.69 614.957 52.486 615.017 52.234C615.089 51.97 615.125 51.64 615.125 51.244C615.125 50.848 615.089 50.524 615.017 50.272C614.957 50.008 614.861 49.804 614.729 49.66C614.609 49.504 614.459 49.396 614.279 49.336C614.099 49.264 613.895 49.228 613.667 49.228C613.211 49.228 612.851 49.372 612.587 49.66C612.335 49.936 612.209 50.464 612.209 51.244ZM617.303 57.904C617.303 57.364 617.375 56.902 617.519 56.518C617.663 56.134 617.855 55.816 618.095 55.564C618.347 55.312 618.641 55.132 618.977 55.024C619.325 54.904 619.697 54.844 620.093 54.844C620.489 54.844 620.855 54.898 621.191 55.006C621.539 55.114 621.833 55.288 622.073 55.528C622.325 55.768 622.523 56.086 622.667 56.482C622.811 56.866 622.883 57.34 622.883 57.904C622.883 58.468 622.811 58.948 622.667 59.344C622.523 59.728 622.325 60.04 622.073 60.28C621.833 60.52 621.539 60.694 621.191 60.802C620.855 60.91 620.489 60.964 620.093 60.964C619.697 60.964 619.325 60.91 618.977 60.802C618.641 60.694 618.347 60.52 618.095 60.28C617.855 60.04 617.663 59.728 617.519 59.344C617.375 58.948 617.303 58.468 617.303 57.904ZM618.635 57.904C618.635 58.624 618.761 59.14 619.013 59.452C619.277 59.764 619.637 59.92 620.093 59.92C620.321 59.92 620.525 59.89 620.705 59.83C620.885 59.758 621.035 59.65 621.155 59.506C621.287 59.35 621.383 59.146 621.443 58.894C621.515 58.63 621.551 58.3 621.551 57.904C621.551 57.508 621.515 57.184 621.443 56.932C621.383 56.668 621.287 56.464 621.155 56.32C621.035 56.164 620.885 56.056 620.705 55.996C620.525 55.924 620.321 55.888 620.093 55.888C619.637 55.888 619.277 56.032 619.013 56.32C618.761 56.596 618.635 57.124 618.635 57.904ZM621.083 48.166L621.965 48.85L612.731 61.216L611.831 60.514L621.083 48.166Z" fill="#313131"/>
<rect opacity="0.7" x="268" y="40" width="306.34" height="24" rx="12" fill="#A68EFC"/>
<path d="M706.944 16.668H709.464V7.956L709.644 6.894L708.924 7.74L706.944 9.162L706.26 8.244L710.22 5.184H710.868V16.668H713.334V18H706.944V16.668ZM715.583 11.7C715.583 9.54 715.931 7.914 716.627 6.822C717.335 5.73 718.361 5.184 719.705 5.184C721.157 5.184 722.207 5.724 722.855 6.804C723.515 7.872 723.845 9.504 723.845 11.7C723.845 13.86 723.491 15.486 722.783 16.578C722.087 17.67 721.061 18.216 719.705 18.216C718.277 18.216 717.233 17.646 716.573 16.506C715.913 15.366 715.583 13.764 715.583 11.7ZM717.077 11.7C717.077 12.48 717.125 13.194 717.221 13.842C717.329 14.478 717.491 15.03 717.707 15.498C717.923 15.954 718.193 16.314 718.517 16.578C718.853 16.83 719.249 16.956 719.705 16.956C720.617 16.956 721.283 16.536 721.703 15.696C722.135 14.844 722.351 13.512 722.351 11.7C722.351 10.932 722.303 10.224 722.207 9.576C722.123 8.928 721.973 8.37 721.757 7.902C721.553 7.434 721.283 7.074 720.947 6.822C720.611 6.57 720.197 6.444 719.705 6.444C718.805 6.444 718.139 6.87 717.707 7.722C717.287 8.574 717.077 9.9 717.077 11.7ZM725.391 11.7C725.391 9.54 725.739 7.914 726.435 6.822C727.143 5.73 728.169 5.184 729.513 5.184C730.965 5.184 732.015 5.724 732.663 6.804C733.323 7.872 733.653 9.504 733.653 11.7C733.653 13.86 733.299 15.486 732.591 16.578C731.895 17.67 730.869 18.216 729.513 18.216C728.085 18.216 727.041 17.646 726.381 16.506C725.721 15.366 725.391 13.764 725.391 11.7ZM726.885 11.7C726.885 12.48 726.933 13.194 727.029 13.842C727.137 14.478 727.299 15.03 727.515 15.498C727.731 15.954 728.001 16.314 728.325 16.578C728.661 16.83 729.057 16.956 729.513 16.956C730.425 16.956 731.091 16.536 731.511 15.696C731.943 14.844 732.159 13.512 732.159 11.7C732.159 10.932 732.111 10.224 732.015 9.576C731.931 8.928 731.781 8.37 731.565 7.902C731.361 7.434 731.091 7.074 730.755 6.822C730.419 6.57 730.005 6.444 729.513 6.444C728.613 6.444 727.947 6.87 727.515 7.722C727.095 8.574 726.885 9.9 726.885 11.7ZM735.686 8.244C735.686 7.704 735.758 7.242 735.902 6.858C736.046 6.474 736.238 6.156 736.478 5.904C736.73 5.652 737.024 5.472 737.36 5.364C737.708 5.244 738.08 5.184 738.476 5.184C738.872 5.184 739.238 5.238 739.574 5.346C739.922 5.454 740.216 5.628 740.456 5.868C740.708 6.108 740.906 6.426 741.05 6.822C741.194 7.206 741.266 7.68 741.266 8.244C741.266 8.808 741.194 9.288 741.05 9.684C740.906 10.068 740.708 10.38 740.456 10.62C740.216 10.86 739.922 11.034 739.574 11.142C739.238 11.25 738.872 11.304 738.476 11.304C738.08 11.304 737.708 11.25 737.36 11.142C737.024 11.034 736.73 10.86 736.478 10.62C736.238 10.38 736.046 10.068 735.902 9.684C735.758 9.288 735.686 8.808 735.686 8.244ZM737.018 8.244C737.018 8.964 737.144 9.48 737.396 9.792C737.66 10.104 738.02 10.26 738.476 10.26C738.704 10.26 738.908 10.23 739.088 10.17C739.268 10.098 739.418 9.99 739.538 9.846C739.67 9.69 739.766 9.486 739.826 9.234C739.898 8.97 739.934 8.64 739.934 8.244C739.934 7.848 739.898 7.524 739.826 7.272C739.766 7.008 739.67 6.804 739.538 6.66C739.418 6.504 739.268 6.396 739.088 6.336C738.908 6.264 738.704 6.228 738.476 6.228C738.02 6.228 737.66 6.372 737.396 6.66C737.144 6.936 737.018 7.464 737.018 8.244ZM742.112 14.904C742.112 14.364 742.184 13.902 742.328 13.518C742.472 13.134 742.664 12.816 742.904 12.564C743.156 12.312 743.45 12.132 743.786 12.024C744.134 11.904 744.506 11.844 744.902 11.844C745.298 11.844 745.664 11.898 746 12.006C746.348 12.114 746.642 12.288 746.882 12.528C747.134 12.768 747.332 13.086 747.476 13.482C747.62 13.866 747.692 14.34 747.692 14.904C747.692 15.468 747.62 15.948 747.476 16.344C747.332 16.728 747.134 17.04 746.882 17.28C746.642 17.52 746.348 17.694 746 17.802C745.664 17.91 745.298 17.964 744.902 17.964C744.506 17.964 744.134 17.91 743.786 17.802C743.45 17.694 743.156 17.52 742.904 17.28C742.664 17.04 742.472 16.728 742.328 16.344C742.184 15.948 742.112 15.468 742.112 14.904ZM743.444 14.904C743.444 15.624 743.57 16.14 743.822 16.452C744.086 16.764 744.446 16.92 744.902 16.92C745.13 16.92 745.334 16.89 745.514 16.83C745.694 16.758 745.844 16.65 745.964 16.506C746.096 16.35 746.192 16.146 746.252 15.894C746.324 15.63 746.36 15.3 746.36 14.904C746.36 14.508 746.324 14.184 746.252 13.932C746.192 13.668 746.096 13.464 745.964 13.32C745.844 13.164 745.694 13.056 745.514 12.996C745.334 12.924 745.13 12.888 744.902 12.888C744.446 12.888 744.086 13.032 743.822 13.32C743.57 13.596 743.444 14.124 743.444 14.904ZM745.892 5.166L746.774 5.85L737.54 18.216L736.64 17.514L745.892 5.166Z" fill="#313131"/>
<rect x="153" width="536" height="24" rx="12" fill="#A68EFC"/>
<path d="M8.982 18H1.53V5.4H3.024V16.668H8.982V18ZM11.1708 5.4H12.6648V18H11.1708V5.4ZM20.3151 11.718H24.5451V17.262C24.3531 17.406 24.1191 17.538 23.8431 17.658C23.5791 17.778 23.2911 17.88 22.9791 17.964C22.6791 18.048 22.3611 18.108 22.0251 18.144C21.7011 18.192 21.3831 18.216 21.0711 18.216C20.2671 18.216 19.5291 18.09 18.8571 17.838C18.1851 17.574 17.6031 17.178 17.1111 16.65C16.6191 16.11 16.2351 15.432 15.9591 14.616C15.6831 13.788 15.5451 12.816 15.5451 11.7C15.5451 10.536 15.7131 9.54 16.0491 8.712C16.3851 7.884 16.8231 7.212 17.3631 6.696C17.9031 6.168 18.5091 5.784 19.1811 5.544C19.8531 5.304 20.5251 5.184 21.1971 5.184C21.9171 5.184 22.5111 5.226 22.9791 5.31C23.4471 5.382 23.8431 5.484 24.1671 5.616L23.7891 6.93C23.2131 6.654 22.3911 6.516 21.3231 6.516C20.8191 6.516 20.3151 6.606 19.8111 6.786C19.3191 6.954 18.8751 7.242 18.4791 7.65C18.0831 8.058 17.7591 8.592 17.5071 9.252C17.2551 9.912 17.1291 10.728 17.1291 11.7C17.1291 12.588 17.2311 13.356 17.4351 14.004C17.6391 14.652 17.9211 15.192 18.2811 15.624C18.6531 16.044 19.0971 16.362 19.6131 16.578C20.1291 16.782 20.6931 16.884 21.3051 16.884C22.0731 16.884 22.7271 16.734 23.2671 16.434V12.924L20.3151 12.564V11.718ZM34.6306 12.222H28.5826V18H27.0886V5.4H28.5826V10.89H34.6306V5.4H36.1246V18H34.6306V12.222ZM47.3183 6.732H43.3943V18H41.9003V6.732H37.9763V5.4H47.3183V6.732ZM58.6588 14.508H54.0148L52.7548 18H51.2788L56.0488 5.202H56.7328L61.5208 18H59.9548L58.6588 14.508ZM54.5008 13.212H58.2088L56.8048 9.378L56.3548 7.47H56.3368L55.8868 9.414L54.5008 13.212ZM70.801 17.478C70.441 17.754 69.985 17.946 69.433 18.054C68.881 18.162 68.293 18.216 67.669 18.216C66.913 18.216 66.205 18.09 65.545 17.838C64.885 17.574 64.309 17.178 63.817 16.65C63.325 16.122 62.935 15.45 62.647 14.634C62.359 13.806 62.215 12.828 62.215 11.7C62.215 10.524 62.371 9.528 62.683 8.712C63.007 7.884 63.427 7.212 63.943 6.696C64.471 6.168 65.059 5.784 65.707 5.544C66.355 5.304 67.015 5.184 67.687 5.184C68.407 5.184 68.995 5.226 69.451 5.31C69.907 5.382 70.297 5.484 70.621 5.616L70.261 6.93C69.685 6.654 68.863 6.516 67.795 6.516C67.303 6.516 66.817 6.606 66.337 6.786C65.857 6.966 65.425 7.26 65.041 7.668C64.669 8.076 64.369 8.61 64.141 9.27C63.913 9.93 63.799 10.74 63.799 11.7C63.799 12.564 63.907 13.32 64.123 13.968C64.339 14.616 64.633 15.156 65.005 15.588C65.389 16.02 65.833 16.344 66.337 16.56C66.853 16.776 67.411 16.884 68.011 16.884C68.551 16.884 69.019 16.83 69.415 16.722C69.823 16.614 70.165 16.476 70.441 16.308L70.801 17.478ZM80.6096 17.478C80.2496 17.754 79.7936 17.946 79.2416 18.054C78.6896 18.162 78.1016 18.216 77.4776 18.216C76.7216 18.216 76.0136 18.09 75.3536 17.838C74.6936 17.574 74.1176 17.178 73.6256 16.65C73.1336 16.122 72.7436 15.45 72.4556 14.634C72.1676 13.806 72.0236 12.828 72.0236 11.7C72.0236 10.524 72.1796 9.528 72.4916 8.712C72.8156 7.884 73.2356 7.212 73.7516 6.696C74.2796 6.168 74.8676 5.784 75.5156 5.544C76.1636 5.304 76.8236 5.184 77.4956 5.184C78.2156 5.184 78.8036 5.226 79.2596 5.31C79.7156 5.382 80.1056 5.484 80.4296 5.616L80.0696 6.93C79.4936 6.654 78.6716 6.516 77.6036 6.516C77.1116 6.516 76.6256 6.606 76.1456 6.786C75.6656 6.966 75.2336 7.26 74.8496 7.668C74.4776 8.076 74.1776 8.61 73.9496 9.27C73.7216 9.93 73.6076 10.74 73.6076 11.7C73.6076 12.564 73.7156 13.32 73.9316 13.968C74.1476 14.616 74.4416 15.156 74.8136 15.588C75.1976 16.02 75.6416 16.344 76.1456 16.56C76.6616 16.776 77.2196 16.884 77.8196 16.884C78.3596 16.884 78.8276 16.83 79.2236 16.722C79.6316 16.614 79.9736 16.476 80.2496 16.308L80.6096 17.478ZM81.8322 11.7C81.8322 9.6 82.2762 7.992 83.1642 6.876C84.0522 5.748 85.3182 5.184 86.9622 5.184C87.8502 5.184 88.6182 5.34 89.2662 5.652C89.9142 5.964 90.4482 6.408 90.8682 6.984C91.3002 7.548 91.6182 8.232 91.8222 9.036C92.0262 9.828 92.1282 10.716 92.1282 11.7C92.1282 13.8 91.6782 15.414 90.7782 16.542C89.8902 17.658 88.6182 18.216 86.9622 18.216C86.0862 18.216 85.3242 18.06 84.6762 17.748C84.0402 17.436 83.5062 16.998 83.0742 16.434C82.6542 15.858 82.3422 15.174 82.1382 14.382C81.9342 13.578 81.8322 12.684 81.8322 11.7ZM83.4162 11.7C83.4162 12.396 83.4822 13.056 83.6142 13.68C83.7582 14.304 83.9742 14.856 84.2622 15.336C84.5502 15.804 84.9162 16.182 85.3602 16.47C85.8162 16.746 86.3502 16.884 86.9622 16.884C88.0782 16.884 88.9542 16.464 89.5902 15.624C90.2262 14.772 90.5442 13.464 90.5442 11.7C90.5442 11.016 90.4722 10.362 90.3282 9.738C90.1962 9.102 89.9802 8.55 89.6802 8.082C89.3922 7.602 89.0202 7.224 88.5642 6.948C88.1202 6.66 87.5862 6.516 86.9622 6.516C85.8582 6.516 84.9882 6.942 84.3522 7.794C83.7282 8.634 83.4162 9.936 83.4162 11.7ZM101.895 5.4H103.335V13.806C103.335 14.562 103.233 15.216 103.029 15.768C102.837 16.32 102.555 16.776 102.183 17.136C101.823 17.484 101.385 17.742 100.869 17.91C100.353 18.078 99.7829 18.162 99.1589 18.162C97.6709 18.162 96.5489 17.826 95.7929 17.154C95.0369 16.482 94.6589 15.462 94.6589 14.094V5.4H96.1529V13.392C96.1529 14.028 96.2129 14.568 96.3329 15.012C96.4649 15.444 96.6569 15.798 96.9089 16.074C97.1609 16.338 97.4729 16.53 97.8449 16.65C98.2289 16.77 98.6729 16.83 99.1769 16.83C100.149 16.83 100.845 16.566 101.265 16.038C101.685 15.498 101.895 14.616 101.895 13.392V5.4ZM108.669 9.756L107.697 7.938H107.625L107.805 9.756V18H106.401V5.202H107.193L113.223 13.608L114.159 15.336H114.249L114.051 13.608V5.4H115.455V18.198H114.663L108.669 9.756ZM126.648 6.732H122.724V18H121.23V6.732H117.306V5.4H126.648V6.732ZM134.185 14.796C134.185 14.292 134.035 13.884 133.735 13.572C133.435 13.248 133.057 12.966 132.601 12.726C132.157 12.474 131.671 12.24 131.143 12.024C130.615 11.808 130.123 11.55 129.667 11.25C129.223 10.938 128.851 10.56 128.551 10.116C128.251 9.66 128.101 9.084 128.101 8.388C128.101 7.404 128.443 6.624 129.127 6.048C129.811 5.472 130.783 5.184 132.043 5.184C132.775 5.184 133.441 5.238 134.041 5.346C134.641 5.454 135.109 5.592 135.445 5.76L134.995 7.074C134.719 6.942 134.311 6.816 133.771 6.696C133.243 6.576 132.643 6.516 131.971 6.516C131.179 6.516 130.585 6.696 130.189 7.056C129.793 7.404 129.595 7.818 129.595 8.298C129.595 8.766 129.745 9.156 130.045 9.468C130.345 9.78 130.717 10.062 131.161 10.314C131.617 10.554 132.109 10.794 132.637 11.034C133.165 11.274 133.651 11.556 134.095 11.88C134.551 12.192 134.929 12.57 135.229 13.014C135.529 13.458 135.679 14.01 135.679 14.67C135.679 15.21 135.583 15.696 135.391 16.128C135.199 16.56 134.917 16.932 134.545 17.244C134.173 17.556 133.723 17.796 133.195 17.964C132.667 18.132 132.067 18.216 131.395 18.216C130.495 18.216 129.751 18.144 129.163 18C128.575 17.868 128.119 17.718 127.795 17.55L128.299 16.2C128.575 16.356 128.983 16.512 129.523 16.668C130.063 16.812 130.669 16.884 131.341 16.884C131.737 16.884 132.109 16.848 132.457 16.776C132.805 16.692 133.105 16.566 133.357 16.398C133.609 16.218 133.807 15.996 133.951 15.732C134.107 15.468 134.185 15.156 134.185 14.796Z" fill="#313131"/>
<path d="M240.218 93.796C240.218 93.292 240.068 92.884 239.768 92.572C239.468 92.248 239.09 91.966 238.634 91.726C238.19 91.474 237.704 91.24 237.176 91.024C236.648 90.808 236.156 90.55 235.7 90.25C235.256 89.938 234.884 89.56 234.584 89.116C234.284 88.66 234.134 88.084 234.134 87.388C234.134 86.404 234.476 85.624 235.16 85.048C235.844 84.472 236.816 84.184 238.076 84.184C238.808 84.184 239.474 84.238 240.074 84.346C240.674 84.454 241.142 84.592 241.478 84.76L241.028 86.074C240.752 85.942 240.344 85.816 239.804 85.696C239.276 85.576 238.676 85.516 238.004 85.516C237.212 85.516 236.618 85.696 236.222 86.056C235.826 86.404 235.628 86.818 235.628 87.298C235.628 87.766 235.778 88.156 236.078 88.468C236.378 88.78 236.75 89.062 237.194 89.314C237.65 89.554 238.142 89.794 238.67 90.034C239.198 90.274 239.684 90.556 240.128 90.88C240.584 91.192 240.962 91.57 241.262 92.014C241.562 92.458 241.712 93.01 241.712 93.67C241.712 94.21 241.616 94.696 241.424 95.128C241.232 95.56 240.95 95.932 240.578 96.244C240.206 96.556 239.756 96.796 239.228 96.964C238.7 97.132 238.1 97.216 237.428 97.216C236.528 97.216 235.784 97.144 235.196 97C234.608 96.868 234.152 96.718 233.828 96.55L234.332 95.2C234.608 95.356 235.016 95.512 235.556 95.668C236.096 95.812 236.702 95.884 237.374 95.884C237.77 95.884 238.142 95.848 238.49 95.776C238.838 95.692 239.138 95.566 239.39 95.398C239.642 95.218 239.84 94.996 239.984 94.732C240.14 94.468 240.218 94.156 240.218 93.796ZM252.229 85.732H248.305V97H246.811V85.732H242.887V84.4H252.229V85.732ZM258.858 93.508H254.214L252.954 97H251.478L256.248 84.202H256.932L261.72 97H260.154L258.858 93.508ZM254.7 92.212H258.408L257.004 88.378L256.554 86.47H256.536L256.086 88.414L254.7 92.212ZM263.393 84.526C263.849 84.442 264.371 84.376 264.959 84.328C265.559 84.28 266.105 84.256 266.597 84.256C267.149 84.256 267.671 84.316 268.163 84.436C268.667 84.556 269.105 84.754 269.477 85.03C269.861 85.306 270.167 85.666 270.395 86.11C270.623 86.554 270.737 87.094 270.737 87.73C270.737 88.714 270.467 89.512 269.927 90.124C269.387 90.736 268.703 91.144 267.875 91.348L268.739 92.014L271.871 97H270.125L266.651 91.564L264.887 91.294V97H263.393V84.526ZM266.633 85.552C266.477 85.552 266.315 85.552 266.147 85.552C265.979 85.552 265.817 85.558 265.661 85.57C265.505 85.582 265.355 85.594 265.211 85.606C265.079 85.618 264.971 85.636 264.887 85.66V90.304H266.291C267.119 90.304 267.803 90.1 268.343 89.692C268.883 89.284 269.153 88.648 269.153 87.784C269.153 87.136 268.931 86.602 268.487 86.182C268.043 85.762 267.425 85.552 266.633 85.552ZM281.145 85.732H277.221V97H275.727V85.732H271.803V84.4H281.145V85.732ZM297.558 93.796C297.558 93.292 297.408 92.884 297.108 92.572C296.808 92.248 296.43 91.966 295.974 91.726C295.53 91.474 295.044 91.24 294.516 91.024C293.988 90.808 293.496 90.55 293.04 90.25C292.596 89.938 292.224 89.56 291.924 89.116C291.624 88.66 291.474 88.084 291.474 87.388C291.474 86.404 291.816 85.624 292.5 85.048C293.184 84.472 294.156 84.184 295.416 84.184C296.148 84.184 296.814 84.238 297.414 84.346C298.014 84.454 298.482 84.592 298.818 84.76L298.368 86.074C298.092 85.942 297.684 85.816 297.144 85.696C296.616 85.576 296.016 85.516 295.344 85.516C294.552 85.516 293.958 85.696 293.562 86.056C293.166 86.404 292.968 86.818 292.968 87.298C292.968 87.766 293.118 88.156 293.418 88.468C293.718 88.78 294.09 89.062 294.534 89.314C294.99 89.554 295.482 89.794 296.01 90.034C296.538 90.274 297.024 90.556 297.468 90.88C297.924 91.192 298.302 91.57 298.602 92.014C298.902 92.458 299.052 93.01 299.052 93.67C299.052 94.21 298.956 94.696 298.764 95.128C298.572 95.56 298.29 95.932 297.918 96.244C297.546 96.556 297.096 96.796 296.568 96.964C296.04 97.132 295.44 97.216 294.768 97.216C293.868 97.216 293.124 97.144 292.536 97C291.948 96.868 291.492 96.718 291.168 96.55L291.672 95.2C291.948 95.356 292.356 95.512 292.896 95.668C293.436 95.812 294.042 95.884 294.714 95.884C295.11 95.884 295.482 95.848 295.83 95.776C296.178 95.692 296.478 95.566 296.73 95.398C296.982 95.218 297.18 94.996 297.324 94.732C297.48 94.468 297.558 94.156 297.558 93.796ZM309.496 96.478C309.136 96.754 308.68 96.946 308.128 97.054C307.576 97.162 306.988 97.216 306.364 97.216C305.608 97.216 304.9 97.09 304.24 96.838C303.58 96.574 303.004 96.178 302.512 95.65C302.02 95.122 301.63 94.45 301.342 93.634C301.054 92.806 300.91 91.828 300.91 90.7C300.91 89.524 301.066 88.528 301.378 87.712C301.702 86.884 302.122 86.212 302.638 85.696C303.166 85.168 303.754 84.784 304.402 84.544C305.05 84.304 305.71 84.184 306.382 84.184C307.102 84.184 307.69 84.226 308.146 84.31C308.602 84.382 308.992 84.484 309.316 84.616L308.956 85.93C308.38 85.654 307.558 85.516 306.49 85.516C305.998 85.516 305.512 85.606 305.032 85.786C304.552 85.966 304.12 86.26 303.736 86.668C303.364 87.076 303.064 87.61 302.836 88.27C302.608 88.93 302.494 89.74 302.494 90.7C302.494 91.564 302.602 92.32 302.818 92.968C303.034 93.616 303.328 94.156 303.7 94.588C304.084 95.02 304.528 95.344 305.032 95.56C305.548 95.776 306.106 95.884 306.706 95.884C307.246 95.884 307.714 95.83 308.11 95.722C308.518 95.614 308.86 95.476 309.136 95.308L309.496 96.478ZM317.2 93.508H312.556L311.296 97H309.82L314.59 84.202H315.274L320.062 97H318.496L317.2 93.508ZM313.042 92.212H316.75L315.346 88.378L314.896 86.47H314.878L314.428 88.414L313.042 92.212Z" fill="#313131"/>
<path d="M529.432 94.13H527.308V98H525.904V94.13H520.36V93.536L526.336 85.202H527.308V92.87H529.432V94.13ZM525.904 88.946L526.084 87.47H526.03L525.4 88.694L522.862 92.132L521.998 93.014L523.258 92.87H525.904V88.946ZM531.033 94.994C531.033 94.238 531.231 93.584 531.627 93.032C532.023 92.468 532.641 91.958 533.481 91.502C533.181 91.322 532.899 91.136 532.635 90.944C532.383 90.74 532.155 90.512 531.951 90.26C531.759 90.008 531.603 89.726 531.483 89.414C531.375 89.102 531.321 88.742 531.321 88.334C531.321 87.866 531.399 87.44 531.555 87.056C531.723 86.672 531.957 86.342 532.257 86.066C532.569 85.79 532.935 85.574 533.355 85.418C533.787 85.262 534.273 85.184 534.813 85.184C535.317 85.184 535.773 85.256 536.181 85.4C536.589 85.544 536.931 85.742 537.207 85.994C537.495 86.246 537.717 86.546 537.873 86.894C538.029 87.242 538.107 87.626 538.107 88.046C538.107 88.73 537.951 89.336 537.639 89.864C537.327 90.38 536.811 90.89 536.091 91.394C536.403 91.574 536.697 91.772 536.973 91.988C537.261 92.204 537.507 92.444 537.711 92.708C537.927 92.972 538.095 93.272 538.215 93.608C538.335 93.932 538.395 94.304 538.395 94.724C538.395 95.24 538.311 95.714 538.143 96.146C537.975 96.566 537.729 96.932 537.405 97.244C537.081 97.544 536.685 97.784 536.217 97.964C535.749 98.132 535.215 98.216 534.615 98.216C534.039 98.216 533.529 98.132 533.085 97.964C532.641 97.796 532.263 97.568 531.951 97.28C531.651 96.992 531.423 96.656 531.267 96.272C531.111 95.876 531.033 95.45 531.033 94.994ZM536.991 94.814C536.991 94.454 536.919 94.142 536.775 93.878C536.631 93.602 536.439 93.356 536.199 93.14C535.971 92.912 535.707 92.708 535.407 92.528C535.107 92.348 534.795 92.174 534.471 92.006C533.739 92.414 533.217 92.87 532.905 93.374C532.593 93.878 532.437 94.358 532.437 94.814C532.437 95.102 532.485 95.378 532.581 95.642C532.677 95.906 532.821 96.134 533.013 96.326C533.205 96.518 533.439 96.674 533.715 96.794C534.003 96.902 534.333 96.956 534.705 96.956C535.005 96.956 535.293 96.914 535.569 96.83C535.845 96.734 536.085 96.602 536.289 96.434C536.505 96.254 536.673 96.032 536.793 95.768C536.925 95.492 536.991 95.174 536.991 94.814ZM532.725 88.298C532.725 88.634 532.791 88.934 532.923 89.198C533.055 89.45 533.229 89.678 533.445 89.882C533.673 90.086 533.931 90.278 534.219 90.458C534.507 90.626 534.807 90.788 535.119 90.944C535.659 90.524 536.055 90.11 536.307 89.702C536.571 89.294 536.703 88.844 536.703 88.352C536.703 87.74 536.511 87.272 536.127 86.948C535.755 86.612 535.305 86.444 534.777 86.444C534.453 86.444 534.165 86.498 533.913 86.606C533.661 86.714 533.445 86.852 533.265 87.02C533.085 87.188 532.947 87.386 532.851 87.614C532.767 87.83 532.725 88.058 532.725 88.298ZM540.877 88.244C540.877 87.704 540.949 87.242 541.093 86.858C541.237 86.474 541.429 86.156 541.669 85.904C541.921 85.652 542.215 85.472 542.551 85.364C542.899 85.244 543.271 85.184 543.667 85.184C544.063 85.184 544.429 85.238 544.765 85.346C545.113 85.454 545.407 85.628 545.647 85.868C545.899 86.108 546.097 86.426 546.241 86.822C546.385 87.206 546.457 87.68 546.457 88.244C546.457 88.808 546.385 89.288 546.241 89.684C546.097 90.068 545.899 90.38 545.647 90.62C545.407 90.86 545.113 91.034 544.765 91.142C544.429 91.25 544.063 91.304 543.667 91.304C543.271 91.304 542.899 91.25 542.551 91.142C542.215 91.034 541.921 90.86 541.669 90.62C541.429 90.38 541.237 90.068 541.093 89.684C540.949 89.288 540.877 88.808 540.877 88.244ZM542.209 88.244C542.209 88.964 542.335 89.48 542.587 89.792C542.851 90.104 543.211 90.26 543.667 90.26C543.895 90.26 544.099 90.23 544.279 90.17C544.459 90.098 544.609 89.99 544.729 89.846C544.861 89.69 544.957 89.486 545.017 89.234C545.089 88.97 545.125 88.64 545.125 88.244C545.125 87.848 545.089 87.524 545.017 87.272C544.957 87.008 544.861 86.804 544.729 86.66C544.609 86.504 544.459 86.396 544.279 86.336C544.099 86.264 543.895 86.228 543.667 86.228C543.211 86.228 542.851 86.372 542.587 86.66C542.335 86.936 542.209 87.464 542.209 88.244ZM547.303 94.904C547.303 94.364 547.375 93.902 547.519 93.518C547.663 93.134 547.855 92.816 548.095 92.564C548.347 92.312 548.641 92.132 548.977 92.024C549.325 91.904 549.697 91.844 550.093 91.844C550.489 91.844 550.855 91.898 551.191 92.006C551.539 92.114 551.833 92.288 552.073 92.528C552.325 92.768 552.523 93.086 552.667 93.482C552.811 93.866 552.883 94.34 552.883 94.904C552.883 95.468 552.811 95.948 552.667 96.344C552.523 96.728 552.325 97.04 552.073 97.28C551.833 97.52 551.539 97.694 551.191 97.802C550.855 97.91 550.489 97.964 550.093 97.964C549.697 97.964 549.325 97.91 548.977 97.802C548.641 97.694 548.347 97.52 548.095 97.28C547.855 97.04 547.663 96.728 547.519 96.344C547.375 95.948 547.303 95.468 547.303 94.904ZM548.635 94.904C548.635 95.624 548.761 96.14 549.013 96.452C549.277 96.764 549.637 96.92 550.093 96.92C550.321 96.92 550.525 96.89 550.705 96.83C550.885 96.758 551.035 96.65 551.155 96.506C551.287 96.35 551.383 96.146 551.443 95.894C551.515 95.63 551.551 95.3 551.551 94.904C551.551 94.508 551.515 94.184 551.443 93.932C551.383 93.668 551.287 93.464 551.155 93.32C551.035 93.164 550.885 93.056 550.705 92.996C550.525 92.924 550.321 92.888 550.093 92.888C549.637 92.888 549.277 93.032 549.013 93.32C548.761 93.596 548.635 94.124 548.635 94.904ZM551.083 85.166L551.965 85.85L542.731 98.216L541.831 97.514L551.083 85.166Z" fill="#313131"/>
<rect opacity="0.6" x="337" y="80" width="167.042" height="24" rx="12" fill="#A68EFC"/>
<path d="M237.53 125.4H244.388V126.732H239.024V131.034H244.028V132.366H239.024V138H237.53V125.4ZM247.171 125.4H248.665V138H247.171V125.4ZM254.335 129.756L253.363 127.938H253.291L253.471 129.756V138H252.067V125.202H252.859L258.889 133.608L259.825 135.336H259.915L259.717 133.608V125.4H261.121V138.198H260.329L254.335 129.756ZM264.52 125.4H266.014V138H264.52V125.4ZM275.105 134.796C275.105 134.292 274.955 133.884 274.655 133.572C274.355 133.248 273.977 132.966 273.521 132.726C273.077 132.474 272.591 132.24 272.063 132.024C271.535 131.808 271.043 131.55 270.587 131.25C270.143 130.938 269.771 130.56 269.471 130.116C269.171 129.66 269.021 129.084 269.021 128.388C269.021 127.404 269.363 126.624 270.047 126.048C270.731 125.472 271.703 125.184 272.963 125.184C273.695 125.184 274.361 125.238 274.961 125.346C275.561 125.454 276.029 125.592 276.365 125.76L275.915 127.074C275.639 126.942 275.231 126.816 274.691 126.696C274.163 126.576 273.563 126.516 272.891 126.516C272.099 126.516 271.505 126.696 271.109 127.056C270.713 127.404 270.515 127.818 270.515 128.298C270.515 128.766 270.665 129.156 270.965 129.468C271.265 129.78 271.637 130.062 272.081 130.314C272.537 130.554 273.029 130.794 273.557 131.034C274.085 131.274 274.571 131.556 275.015 131.88C275.471 132.192 275.849 132.57 276.149 133.014C276.449 133.458 276.599 134.01 276.599 134.67C276.599 135.21 276.503 135.696 276.311 136.128C276.119 136.56 275.837 136.932 275.465 137.244C275.093 137.556 274.643 137.796 274.115 137.964C273.587 138.132 272.987 138.216 272.315 138.216C271.415 138.216 270.671 138.144 270.083 138C269.495 137.868 269.039 137.718 268.715 137.55L269.219 136.2C269.495 136.356 269.903 136.512 270.443 136.668C270.983 136.812 271.589 136.884 272.261 136.884C272.657 136.884 273.029 136.848 273.377 136.776C273.725 136.692 274.025 136.566 274.277 136.398C274.529 136.218 274.727 135.996 274.871 135.732C275.027 135.468 275.105 135.156 275.105 134.796ZM286.521 132.222H280.473V138H278.979V125.4H280.473V130.89H286.521V125.4H288.015V138H286.521V132.222ZM306.359 134.796C306.359 134.292 306.209 133.884 305.909 133.572C305.609 133.248 305.231 132.966 304.775 132.726C304.331 132.474 303.845 132.24 303.317 132.024C302.789 131.808 302.297 131.55 301.841 131.25C301.397 130.938 301.025 130.56 300.725 130.116C300.425 129.66 300.275 129.084 300.275 128.388C300.275 127.404 300.617 126.624 301.301 126.048C301.985 125.472 302.957 125.184 304.217 125.184C304.949 125.184 305.615 125.238 306.215 125.346C306.815 125.454 307.283 125.592 307.619 125.76L307.169 127.074C306.893 126.942 306.485 126.816 305.945 126.696C305.417 126.576 304.817 126.516 304.145 126.516C303.353 126.516 302.759 126.696 302.363 127.056C301.967 127.404 301.769 127.818 301.769 128.298C301.769 128.766 301.919 129.156 302.219 129.468C302.519 129.78 302.891 130.062 303.335 130.314C303.791 130.554 304.283 130.794 304.811 131.034C305.339 131.274 305.825 131.556 306.269 131.88C306.725 132.192 307.103 132.57 307.403 133.014C307.703 133.458 307.853 134.01 307.853 134.67C307.853 135.21 307.757 135.696 307.565 136.128C307.373 136.56 307.091 136.932 306.719 137.244C306.347 137.556 305.897 137.796 305.369 137.964C304.841 138.132 304.241 138.216 303.569 138.216C302.669 138.216 301.925 138.144 301.337 138C300.749 137.868 300.293 137.718 299.969 137.55L300.473 136.2C300.749 136.356 301.157 136.512 301.697 136.668C302.237 136.812 302.843 136.884 303.515 136.884C303.911 136.884 304.283 136.848 304.631 136.776C304.979 136.692 305.279 136.566 305.531 136.398C305.783 136.218 305.981 135.996 306.125 135.732C306.281 135.468 306.359 135.156 306.359 134.796ZM318.297 137.478C317.937 137.754 317.481 137.946 316.929 138.054C316.377 138.162 315.789 138.216 315.165 138.216C314.409 138.216 313.701 138.09 313.041 137.838C312.381 137.574 311.805 137.178 311.313 136.65C310.821 136.122 310.431 135.45 310.143 134.634C309.855 133.806 309.711 132.828 309.711 131.7C309.711 130.524 309.867 129.528 310.179 128.712C310.503 127.884 310.923 127.212 311.439 126.696C311.967 126.168 312.555 125.784 313.203 125.544C313.851 125.304 314.511 125.184 315.183 125.184C315.903 125.184 316.491 125.226 316.947 125.31C317.403 125.382 317.793 125.484 318.117 125.616L317.757 126.93C317.181 126.654 316.359 126.516 315.291 126.516C314.799 126.516 314.313 126.606 313.833 126.786C313.353 126.966 312.921 127.26 312.537 127.668C312.165 128.076 311.865 128.61 311.637 129.27C311.409 129.93 311.295 130.74 311.295 131.7C311.295 132.564 311.403 133.32 311.619 133.968C311.835 134.616 312.129 135.156 312.501 135.588C312.885 136.02 313.329 136.344 313.833 136.56C314.349 136.776 314.907 136.884 315.507 136.884C316.047 136.884 316.515 136.83 316.911 136.722C317.319 136.614 317.661 136.476 317.937 136.308L318.297 137.478ZM326.001 134.508H321.357L320.097 138H318.621L323.391 125.202H324.075L328.863 138H327.297L326.001 134.508ZM321.843 133.212H325.551L324.147 129.378L323.697 127.47H323.679L323.229 129.414L321.843 133.212Z" fill="#313131"/>
<path d="M519.028 128.262C519.028 128.898 518.908 129.552 518.668 130.224C518.44 130.884 518.134 131.55 517.75 132.222C517.378 132.894 516.958 133.554 516.49 134.202C516.022 134.838 515.554 135.444 515.086 136.02L514.204 136.794V136.866L515.356 136.668H519.28V138H512.116V137.478C512.38 137.202 512.698 136.86 513.07 136.452C513.442 136.044 513.826 135.594 514.222 135.102C514.63 134.598 515.026 134.07 515.41 133.518C515.806 132.954 516.16 132.384 516.472 131.808C516.796 131.232 517.054 130.662 517.246 130.098C517.438 129.534 517.534 129 517.534 128.496C517.534 127.908 517.366 127.422 517.03 127.038C516.694 126.642 516.184 126.444 515.5 126.444C515.044 126.444 514.6 126.54 514.168 126.732C513.736 126.912 513.364 127.122 513.052 127.362L512.458 126.336C512.878 125.976 513.376 125.694 513.952 125.49C514.528 125.286 515.146 125.184 515.806 125.184C516.322 125.184 516.778 125.262 517.174 125.418C517.57 125.562 517.906 125.772 518.182 126.048C518.458 126.324 518.668 126.654 518.812 127.038C518.956 127.41 519.028 127.818 519.028 128.262ZM524.643 136.956C525.471 136.956 526.155 136.716 526.695 136.236C527.235 135.756 527.505 135.06 527.505 134.148C527.505 133.272 527.235 132.618 526.695 132.186C526.167 131.754 525.435 131.538 524.499 131.538L522.987 131.628V125.4H528.603V126.732H524.337V130.314L525.111 130.278C526.299 130.29 527.235 130.62 527.919 131.268C528.603 131.916 528.945 132.846 528.945 134.058C528.945 134.73 528.831 135.33 528.603 135.858C528.375 136.374 528.063 136.806 527.667 137.154C527.283 137.502 526.827 137.766 526.299 137.946C525.771 138.126 525.207 138.216 524.607 138.216C524.067 138.216 523.611 138.186 523.239 138.126C522.867 138.066 522.519 137.976 522.195 137.856L522.573 136.632C522.849 136.74 523.143 136.824 523.455 136.884C523.779 136.932 524.175 136.956 524.643 136.956ZM531.499 137.172C531.499 136.848 531.589 136.596 531.769 136.416C531.961 136.224 532.213 136.128 532.525 136.128C532.849 136.128 533.107 136.224 533.299 136.416C533.491 136.596 533.587 136.848 533.587 137.172C533.587 137.484 533.491 137.736 533.299 137.928C533.107 138.12 532.849 138.216 532.525 138.216C532.213 138.216 531.961 138.12 531.769 137.928C531.589 137.736 531.499 137.484 531.499 137.172ZM535.691 134.994C535.691 134.238 535.889 133.584 536.285 133.032C536.681 132.468 537.299 131.958 538.139 131.502C537.839 131.322 537.557 131.136 537.293 130.944C537.041 130.74 536.813 130.512 536.609 130.26C536.417 130.008 536.261 129.726 536.141 129.414C536.033 129.102 535.979 128.742 535.979 128.334C535.979 127.866 536.057 127.44 536.213 127.056C536.381 126.672 536.615 126.342 536.915 126.066C537.227 125.79 537.593 125.574 538.013 125.418C538.445 125.262 538.931 125.184 539.471 125.184C539.975 125.184 540.431 125.256 540.839 125.4C541.247 125.544 541.589 125.742 541.865 125.994C542.153 126.246 542.375 126.546 542.531 126.894C542.687 127.242 542.765 127.626 542.765 128.046C542.765 128.73 542.609 129.336 542.297 129.864C541.985 130.38 541.469 130.89 540.749 131.394C541.061 131.574 541.355 131.772 541.631 131.988C541.919 132.204 542.165 132.444 542.369 132.708C542.585 132.972 542.753 133.272 542.873 133.608C542.993 133.932 543.053 134.304 543.053 134.724C543.053 135.24 542.969 135.714 542.801 136.146C542.633 136.566 542.387 136.932 542.063 137.244C541.739 137.544 541.343 137.784 540.875 137.964C540.407 138.132 539.873 138.216 539.273 138.216C538.697 138.216 538.187 138.132 537.743 137.964C537.299 137.796 536.921 137.568 536.609 137.28C536.309 136.992 536.081 136.656 535.925 136.272C535.769 135.876 535.691 135.45 535.691 134.994ZM541.649 134.814C541.649 134.454 541.577 134.142 541.433 133.878C541.289 133.602 541.097 133.356 540.857 133.14C540.629 132.912 540.365 132.708 540.065 132.528C539.765 132.348 539.453 132.174 539.129 132.006C538.397 132.414 537.875 132.87 537.563 133.374C537.251 133.878 537.095 134.358 537.095 134.814C537.095 135.102 537.143 135.378 537.239 135.642C537.335 135.906 537.479 136.134 537.671 136.326C537.863 136.518 538.097 136.674 538.373 136.794C538.661 136.902 538.991 136.956 539.363 136.956C539.663 136.956 539.951 136.914 540.227 136.83C540.503 136.734 540.743 136.602 540.947 136.434C541.163 136.254 541.331 136.032 541.451 135.768C541.583 135.492 541.649 135.174 541.649 134.814ZM537.383 128.298C537.383 128.634 537.449 128.934 537.581 129.198C537.713 129.45 537.887 129.678 538.103 129.882C538.331 130.086 538.589 130.278 538.877 130.458C539.165 130.626 539.465 130.788 539.777 130.944C540.317 130.524 540.713 130.11 540.965 129.702C541.229 129.294 541.361 128.844 541.361 128.352C541.361 127.74 541.169 127.272 540.785 126.948C540.413 126.612 539.963 126.444 539.435 126.444C539.111 126.444 538.823 126.498 538.571 126.606C538.319 126.714 538.103 126.852 537.923 127.02C537.743 127.188 537.605 127.386 537.509 127.614C537.425 127.83 537.383 128.058 537.383 128.298ZM548.109 136.956C548.937 136.956 549.621 136.716 550.161 136.236C550.701 135.756 550.971 135.06 550.971 134.148C550.971 133.272 550.701 132.618 550.161 132.186C549.633 131.754 548.901 131.538 547.965 131.538L546.453 131.628V125.4H552.069V126.732H547.803V130.314L548.577 130.278C549.765 130.29 550.701 130.62 551.385 131.268C552.069 131.916 552.411 132.846 552.411 134.058C552.411 134.73 552.297 135.33 552.069 135.858C551.841 136.374 551.529 136.806 551.133 137.154C550.749 137.502 550.293 137.766 549.765 137.946C549.237 138.126 548.673 138.216 548.073 138.216C547.533 138.216 547.077 138.186 546.705 138.126C546.333 138.066 545.985 137.976 545.661 137.856L546.039 136.632C546.315 136.74 546.609 136.824 546.921 136.884C547.245 136.932 547.641 136.956 548.109 136.956ZM555.344 128.244C555.344 127.704 555.416 127.242 555.56 126.858C555.704 126.474 555.896 126.156 556.136 125.904C556.388 125.652 556.682 125.472 557.018 125.364C557.366 125.244 557.738 125.184 558.134 125.184C558.53 125.184 558.896 125.238 559.232 125.346C559.58 125.454 559.874 125.628 560.114 125.868C560.366 126.108 560.564 126.426 560.708 126.822C560.852 127.206 560.924 127.68 560.924 128.244C560.924 128.808 560.852 129.288 560.708 129.684C560.564 130.068 560.366 130.38 560.114 130.62C559.874 130.86 559.58 131.034 559.232 131.142C558.896 131.25 558.53 131.304 558.134 131.304C557.738 131.304 557.366 131.25 557.018 131.142C556.682 131.034 556.388 130.86 556.136 130.62C555.896 130.38 555.704 130.068 555.56 129.684C555.416 129.288 555.344 128.808 555.344 128.244ZM556.676 128.244C556.676 128.964 556.802 129.48 557.054 129.792C557.318 130.104 557.678 130.26 558.134 130.26C558.362 130.26 558.566 130.23 558.746 130.17C558.926 130.098 559.076 129.99 559.196 129.846C559.328 129.69 559.424 129.486 559.484 129.234C559.556 128.97 559.592 128.64 559.592 128.244C559.592 127.848 559.556 127.524 559.484 127.272C559.424 127.008 559.328 126.804 559.196 126.66C559.076 126.504 558.926 126.396 558.746 126.336C558.566 126.264 558.362 126.228 558.134 126.228C557.678 126.228 557.318 126.372 557.054 126.66C556.802 126.936 556.676 127.464 556.676 128.244ZM561.77 134.904C561.77 134.364 561.842 133.902 561.986 133.518C562.13 133.134 562.322 132.816 562.562 132.564C562.814 132.312 563.108 132.132 563.444 132.024C563.792 131.904 564.164 131.844 564.56 131.844C564.956 131.844 565.322 131.898 565.658 132.006C566.006 132.114 566.3 132.288 566.54 132.528C566.792 132.768 566.99 133.086 567.134 133.482C567.278 133.866 567.35 134.34 567.35 134.904C567.35 135.468 567.278 135.948 567.134 136.344C566.99 136.728 566.792 137.04 566.54 137.28C566.3 137.52 566.006 137.694 565.658 137.802C565.322 137.91 564.956 137.964 564.56 137.964C564.164 137.964 563.792 137.91 563.444 137.802C563.108 137.694 562.814 137.52 562.562 137.28C562.322 137.04 562.13 136.728 561.986 136.344C561.842 135.948 561.77 135.468 561.77 134.904ZM563.102 134.904C563.102 135.624 563.228 136.14 563.48 136.452C563.744 136.764 564.104 136.92 564.56 136.92C564.788 136.92 564.992 136.89 565.172 136.83C565.352 136.758 565.502 136.65 565.622 136.506C565.754 136.35 565.85 136.146 565.91 135.894C565.982 135.63 566.018 135.3 566.018 134.904C566.018 134.508 565.982 134.184 565.91 133.932C565.85 133.668 565.754 133.464 565.622 133.32C565.502 133.164 565.352 133.056 565.172 132.996C564.992 132.924 564.788 132.888 564.56 132.888C564.104 132.888 563.744 133.032 563.48 133.32C563.228 133.596 563.102 134.124 563.102 134.904ZM565.55 125.166L566.432 125.85L557.198 138.216L556.298 137.514L565.55 125.166Z" fill="#313131"/>
<rect opacity="0.55" x="346" y="120" width="149.124" height="24" rx="12" fill="#A68EFC"/>
<path d="M147.53 166.4C147.758 166.364 148.01 166.34 148.286 166.328C148.574 166.304 148.868 166.292 149.168 166.292C149.48 166.28 149.78 166.274 150.068 166.274C150.368 166.262 150.644 166.256 150.896 166.256C151.904 166.256 152.774 166.412 153.506 166.724C154.25 167.036 154.862 167.474 155.342 168.038C155.822 168.59 156.176 169.256 156.404 170.036C156.644 170.816 156.764 171.674 156.764 172.61C156.764 173.462 156.65 174.284 156.422 175.076C156.206 175.856 155.858 176.552 155.378 177.164C154.898 177.764 154.274 178.25 153.506 178.622C152.738 178.982 151.808 179.162 150.716 179.162C150.524 179.162 150.272 179.156 149.96 179.144C149.66 179.144 149.348 179.132 149.024 179.108C148.7 179.096 148.4 179.084 148.124 179.072C147.848 179.06 147.65 179.042 147.53 179.018V166.4ZM150.932 167.588C150.776 167.588 150.602 167.588 150.41 167.588C150.23 167.588 150.05 167.594 149.87 167.606C149.69 167.618 149.522 167.63 149.366 167.642C149.222 167.654 149.108 167.666 149.024 167.678V177.758C149.084 177.77 149.198 177.782 149.366 177.794C149.534 177.794 149.708 177.8 149.888 177.812C150.068 177.812 150.242 177.818 150.41 177.83C150.578 177.83 150.692 177.83 150.752 177.83C151.592 177.83 152.294 177.686 152.858 177.398C153.434 177.11 153.89 176.726 154.226 176.246C154.574 175.754 154.82 175.196 154.964 174.572C155.108 173.936 155.18 173.282 155.18 172.61C155.18 172.022 155.114 171.434 154.982 170.846C154.85 170.246 154.622 169.706 154.298 169.226C153.974 168.746 153.536 168.356 152.984 168.056C152.444 167.744 151.76 167.588 150.932 167.588ZM159.307 166.4H166.165V167.732H160.801V171.854H165.715V173.186H160.801V177.668H166.255V179H159.307V166.4ZM168.958 166.526C169.414 166.418 169.906 166.346 170.434 166.31C170.962 166.274 171.484 166.256 172 166.256C172.552 166.256 173.11 166.31 173.674 166.418C174.25 166.526 174.772 166.724 175.24 167.012C175.708 167.3 176.086 167.696 176.374 168.2C176.674 168.704 176.824 169.346 176.824 170.126C176.824 170.894 176.686 171.542 176.41 172.07C176.134 172.598 175.768 173.03 175.312 173.366C174.856 173.69 174.334 173.924 173.746 174.068C173.158 174.212 172.552 174.284 171.928 174.284C171.868 174.284 171.766 174.284 171.622 174.284C171.49 174.284 171.346 174.284 171.19 174.284C171.046 174.272 170.902 174.26 170.758 174.248C170.614 174.236 170.512 174.224 170.452 174.212V179H168.958V166.526ZM172.036 167.552C171.724 167.552 171.424 167.558 171.136 167.57C170.848 167.582 170.62 167.612 170.452 167.66V172.88C170.512 172.904 170.608 172.922 170.74 172.934C170.872 172.934 171.01 172.94 171.154 172.952C171.298 172.952 171.436 172.952 171.568 172.952C171.7 172.952 171.796 172.952 171.856 172.952C172.264 172.952 172.666 172.916 173.062 172.844C173.47 172.76 173.836 172.616 174.16 172.412C174.484 172.208 174.742 171.92 174.934 171.548C175.138 171.176 175.24 170.702 175.24 170.126C175.24 169.634 175.144 169.226 174.952 168.902C174.772 168.566 174.526 168.302 174.214 168.11C173.914 167.906 173.572 167.762 173.188 167.678C172.804 167.594 172.42 167.552 172.036 167.552ZM178.192 172.7C178.192 170.6 178.636 168.992 179.524 167.876C180.412 166.748 181.678 166.184 183.322 166.184C184.21 166.184 184.978 166.34 185.626 166.652C186.274 166.964 186.808 167.408 187.228 167.984C187.66 168.548 187.978 169.232 188.182 170.036C188.386 170.828 188.488 171.716 188.488 172.7C188.488 174.8 188.038 176.414 187.138 177.542C186.25 178.658 184.978 179.216 183.322 179.216C182.446 179.216 181.684 179.06 181.036 178.748C180.4 178.436 179.866 177.998 179.434 177.434C179.014 176.858 178.702 176.174 178.498 175.382C178.294 174.578 178.192 173.684 178.192 172.7ZM179.776 172.7C179.776 173.396 179.842 174.056 179.974 174.68C180.118 175.304 180.334 175.856 180.622 176.336C180.91 176.804 181.276 177.182 181.72 177.47C182.176 177.746 182.71 177.884 183.322 177.884C184.438 177.884 185.314 177.464 185.95 176.624C186.586 175.772 186.904 174.464 186.904 172.7C186.904 172.016 186.832 171.362 186.688 170.738C186.556 170.102 186.34 169.55 186.04 169.082C185.752 168.602 185.38 168.224 184.924 167.948C184.48 167.66 183.946 167.516 183.322 167.516C182.218 167.516 181.348 167.942 180.712 168.794C180.088 169.634 179.776 170.936 179.776 172.7ZM196.706 175.796C196.706 175.292 196.556 174.884 196.256 174.572C195.956 174.248 195.578 173.966 195.122 173.726C194.678 173.474 194.192 173.24 193.664 173.024C193.136 172.808 192.644 172.55 192.188 172.25C191.744 171.938 191.372 171.56 191.072 171.116C190.772 170.66 190.622 170.084 190.622 169.388C190.622 168.404 190.964 167.624 191.648 167.048C192.332 166.472 193.304 166.184 194.564 166.184C195.296 166.184 195.962 166.238 196.562 166.346C197.162 166.454 197.63 166.592 197.966 166.76L197.516 168.074C197.24 167.942 196.832 167.816 196.292 167.696C195.764 167.576 195.164 167.516 194.492 167.516C193.7 167.516 193.106 167.696 192.71 168.056C192.314 168.404 192.116 168.818 192.116 169.298C192.116 169.766 192.266 170.156 192.566 170.468C192.866 170.78 193.238 171.062 193.682 171.314C194.138 171.554 194.63 171.794 195.158 172.034C195.686 172.274 196.172 172.556 196.616 172.88C197.072 173.192 197.45 173.57 197.75 174.014C198.05 174.458 198.2 175.01 198.2 175.67C198.2 176.21 198.104 176.696 197.912 177.128C197.72 177.56 197.438 177.932 197.066 178.244C196.694 178.556 196.244 178.796 195.716 178.964C195.188 179.132 194.588 179.216 193.916 179.216C193.016 179.216 192.272 179.144 191.684 179C191.096 178.868 190.64 178.718 190.316 178.55L190.82 177.2C191.096 177.356 191.504 177.512 192.044 177.668C192.584 177.812 193.19 177.884 193.862 177.884C194.258 177.884 194.63 177.848 194.978 177.776C195.326 177.692 195.626 177.566 195.878 177.398C196.13 177.218 196.328 176.996 196.472 176.732C196.628 176.468 196.706 176.156 196.706 175.796ZM200.923 166.4H202.417V179H200.923V166.4ZM213.955 167.732H210.031V179H208.537V167.732H204.613V166.4H213.955V167.732ZM225.295 175.508H220.651L219.391 179H217.915L222.685 166.202H223.369L228.157 179H226.591L225.295 175.508ZM221.137 174.212H224.845L223.441 170.378L222.991 168.47H222.973L222.523 170.414L221.137 174.212ZM239.515 170.54L239.695 168.65H239.605L238.921 170.378L235.645 176.066H235.195L231.721 170.36L231.073 168.65H230.983L231.235 170.522V179H229.831V166.4H230.947L234.889 172.844L235.483 174.248H235.519L236.077 172.808L239.839 166.4H241.009V179H239.515V170.54ZM243.547 172.7C243.547 170.6 243.991 168.992 244.879 167.876C245.767 166.748 247.033 166.184 248.677 166.184C249.565 166.184 250.333 166.34 250.981 166.652C251.629 166.964 252.163 167.408 252.583 167.984C253.015 168.548 253.333 169.232 253.537 170.036C253.741 170.828 253.843 171.716 253.843 172.7C253.843 174.8 253.393 176.414 252.493 177.542C251.605 178.658 250.333 179.216 248.677 179.216C247.801 179.216 247.039 179.06 246.391 178.748C245.755 178.436 245.221 177.998 244.789 177.434C244.369 176.858 244.057 176.174 243.853 175.382C243.649 174.578 243.547 173.684 243.547 172.7ZM245.131 172.7C245.131 173.396 245.197 174.056 245.329 174.68C245.473 175.304 245.689 175.856 245.977 176.336C246.265 176.804 246.631 177.182 247.075 177.47C247.531 177.746 248.065 177.884 248.677 177.884C249.793 177.884 250.669 177.464 251.305 176.624C251.941 175.772 252.259 174.464 252.259 172.7C252.259 172.016 252.187 171.362 252.043 170.738C251.911 170.102 251.695 169.55 251.395 169.082C251.107 168.602 250.735 168.224 250.279 167.948C249.835 167.66 249.301 167.516 248.677 167.516C247.573 167.516 246.703 167.942 246.067 168.794C245.443 169.634 245.131 170.936 245.131 172.7ZM263.61 166.4H265.05V174.806C265.05 175.562 264.948 176.216 264.744 176.768C264.552 177.32 264.27 177.776 263.898 178.136C263.538 178.484 263.1 178.742 262.584 178.91C262.068 179.078 261.498 179.162 260.874 179.162C259.386 179.162 258.264 178.826 257.508 178.154C256.752 177.482 256.374 176.462 256.374 175.094V166.4H257.868V174.392C257.868 175.028 257.928 175.568 258.048 176.012C258.18 176.444 258.372 176.798 258.624 177.074C258.876 177.338 259.188 177.53 259.56 177.65C259.944 177.77 260.388 177.83 260.892 177.83C261.864 177.83 262.56 177.566 262.98 177.038C263.4 176.498 263.61 175.616 263.61 174.392V166.4ZM270.384 170.756L269.412 168.938H269.34L269.52 170.756V179H268.116V166.202H268.908L274.938 174.608L275.874 176.336H275.964L275.766 174.608V166.4H277.17V179.198H276.378L270.384 170.756ZM288.363 167.732H284.439V179H282.945V167.732H279.021V166.4H288.363V167.732ZM294.29 166.526C294.746 166.418 295.238 166.346 295.766 166.31C296.294 166.274 296.816 166.256 297.332 166.256C297.884 166.256 298.442 166.31 299.006 166.418C299.582 166.526 300.104 166.724 300.572 167.012C301.04 167.3 301.418 167.696 301.706 168.2C302.006 168.704 302.156 169.346 302.156 170.126C302.156 170.894 302.018 171.542 301.742 172.07C301.466 172.598 301.1 173.03 300.644 173.366C300.188 173.69 299.666 173.924 299.078 174.068C298.49 174.212 297.884 174.284 297.26 174.284C297.2 174.284 297.098 174.284 296.954 174.284C296.822 174.284 296.678 174.284 296.522 174.284C296.378 174.272 296.234 174.26 296.09 174.248C295.946 174.236 295.844 174.224 295.784 174.212V179H294.29V166.526ZM297.368 167.552C297.056 167.552 296.756 167.558 296.468 167.57C296.18 167.582 295.952 167.612 295.784 167.66V172.88C295.844 172.904 295.94 172.922 296.072 172.934C296.204 172.934 296.342 172.94 296.486 172.952C296.63 172.952 296.768 172.952 296.9 172.952C297.032 172.952 297.128 172.952 297.188 172.952C297.596 172.952 297.998 172.916 298.394 172.844C298.802 172.76 299.168 172.616 299.492 172.412C299.816 172.208 300.074 171.92 300.266 171.548C300.47 171.176 300.572 170.702 300.572 170.126C300.572 169.634 300.476 169.226 300.284 168.902C300.104 168.566 299.858 168.302 299.546 168.11C299.246 167.906 298.904 167.762 298.52 167.678C298.136 167.594 297.752 167.552 297.368 167.552ZM309.196 175.508H304.552L303.292 179H301.816L306.586 166.202H307.27L312.058 179H310.492L309.196 175.508ZM305.038 174.212H308.746L307.342 170.378L306.892 168.47H306.874L306.424 170.414L305.038 174.212ZM317.522 172.718H321.752V178.262C321.56 178.406 321.326 178.538 321.05 178.658C320.786 178.778 320.498 178.88 320.186 178.964C319.886 179.048 319.568 179.108 319.232 179.144C318.908 179.192 318.59 179.216 318.278 179.216C317.474 179.216 316.736 179.09 316.064 178.838C315.392 178.574 314.81 178.178 314.318 177.65C313.826 177.11 313.442 176.432 313.166 175.616C312.89 174.788 312.752 173.816 312.752 172.7C312.752 171.536 312.92 170.54 313.256 169.712C313.592 168.884 314.03 168.212 314.57 167.696C315.11 167.168 315.716 166.784 316.388 166.544C317.06 166.304 317.732 166.184 318.404 166.184C319.124 166.184 319.718 166.226 320.186 166.31C320.654 166.382 321.05 166.484 321.374 166.616L320.996 167.93C320.42 167.654 319.598 167.516 318.53 167.516C318.026 167.516 317.522 167.606 317.018 167.786C316.526 167.954 316.082 168.242 315.686 168.65C315.29 169.058 314.966 169.592 314.714 170.252C314.462 170.912 314.336 171.728 314.336 172.7C314.336 173.588 314.438 174.356 314.642 175.004C314.846 175.652 315.128 176.192 315.488 176.624C315.86 177.044 316.304 177.362 316.82 177.578C317.336 177.782 317.9 177.884 318.512 177.884C319.28 177.884 319.934 177.734 320.474 177.434V173.924L317.522 173.564V172.718ZM324.296 166.4H331.154V167.732H325.79V171.854H330.704V173.186H325.79V177.668H331.244V179H324.296V166.4Z" fill="#313131"/>
<path d="M517.028 168.262C517.028 168.898 516.908 169.552 516.668 170.224C516.44 170.884 516.134 171.55 515.75 172.222C515.378 172.894 514.958 173.554 514.49 174.202C514.022 174.838 513.554 175.444 513.086 176.02L512.204 176.794V176.866L513.356 176.668H517.28V178H510.116V177.478C510.38 177.202 510.698 176.86 511.07 176.452C511.442 176.044 511.826 175.594 512.222 175.102C512.63 174.598 513.026 174.07 513.41 173.518C513.806 172.954 514.16 172.384 514.472 171.808C514.796 171.232 515.054 170.662 515.246 170.098C515.438 169.534 515.534 169 515.534 168.496C515.534 167.908 515.366 167.422 515.03 167.038C514.694 166.642 514.184 166.444 513.5 166.444C513.044 166.444 512.6 166.54 512.168 166.732C511.736 166.912 511.364 167.122 511.052 167.362L510.458 166.336C510.878 165.976 511.376 165.694 511.952 165.49C512.528 165.286 513.146 165.184 513.806 165.184C514.322 165.184 514.778 165.262 515.174 165.418C515.57 165.562 515.906 165.772 516.182 166.048C516.458 166.324 516.668 166.654 516.812 167.038C516.956 167.41 517.028 167.818 517.028 168.262ZM528.241 174.13H526.117V178H524.713V174.13H519.169V173.536L525.145 165.202H526.117V172.87H528.241V174.13ZM524.713 168.946L524.893 167.47H524.839L524.209 168.694L521.671 172.132L520.807 173.014L522.067 172.87H524.713V168.946ZM529.499 177.172C529.499 176.848 529.589 176.596 529.769 176.416C529.961 176.224 530.213 176.128 530.525 176.128C530.849 176.128 531.107 176.224 531.299 176.416C531.491 176.596 531.587 176.848 531.587 177.172C531.587 177.484 531.491 177.736 531.299 177.928C531.107 178.12 530.849 178.216 530.525 178.216C530.213 178.216 529.961 178.12 529.769 177.928C529.589 177.736 529.499 177.484 529.499 177.172ZM533.403 169.216C533.403 168.64 533.487 168.106 533.655 167.614C533.823 167.122 534.069 166.696 534.393 166.336C534.717 165.976 535.119 165.694 535.599 165.49C536.091 165.286 536.661 165.184 537.309 165.184C538.533 165.184 539.487 165.58 540.171 166.372C540.855 167.164 541.197 168.28 541.197 169.72C541.197 171.076 541.041 172.264 540.729 173.284C540.429 174.292 540.009 175.144 539.469 175.84C538.929 176.536 538.287 177.082 537.543 177.478C536.811 177.862 536.013 178.108 535.149 178.216L534.825 177.064C535.521 176.956 536.145 176.752 536.697 176.452C537.261 176.152 537.741 175.774 538.137 175.318C538.545 174.862 538.875 174.346 539.127 173.77C539.379 173.182 539.553 172.546 539.649 171.862C539.325 172.246 538.965 172.516 538.569 172.672C538.185 172.816 537.675 172.888 537.039 172.888C536.547 172.888 536.079 172.81 535.635 172.654C535.203 172.486 534.819 172.246 534.483 171.934C534.147 171.622 533.883 171.238 533.691 170.782C533.499 170.326 533.403 169.804 533.403 169.216ZM534.897 169.072C534.897 169.924 535.119 170.566 535.563 170.998C536.019 171.418 536.613 171.628 537.345 171.628C537.933 171.628 538.437 171.532 538.857 171.34C539.277 171.148 539.577 170.896 539.757 170.584C539.781 170.428 539.793 170.29 539.793 170.17C539.793 170.05 539.793 169.924 539.793 169.792C539.793 169.36 539.739 168.946 539.631 168.55C539.535 168.142 539.385 167.782 539.181 167.47C538.977 167.146 538.707 166.894 538.371 166.714C538.047 166.534 537.663 166.444 537.219 166.444C536.487 166.444 535.917 166.678 535.509 167.146C535.101 167.602 534.897 168.244 534.897 169.072ZM544.219 176.668H546.739V167.956L546.919 166.894L546.199 167.74L544.219 169.162L543.535 168.244L547.495 165.184H548.143V176.668H550.609V178H544.219V176.668ZM553.344 168.244C553.344 167.704 553.416 167.242 553.56 166.858C553.704 166.474 553.896 166.156 554.136 165.904C554.388 165.652 554.682 165.472 555.018 165.364C555.366 165.244 555.738 165.184 556.134 165.184C556.53 165.184 556.896 165.238 557.232 165.346C557.58 165.454 557.874 165.628 558.114 165.868C558.366 166.108 558.564 166.426 558.708 166.822C558.852 167.206 558.924 167.68 558.924 168.244C558.924 168.808 558.852 169.288 558.708 169.684C558.564 170.068 558.366 170.38 558.114 170.62C557.874 170.86 557.58 171.034 557.232 171.142C556.896 171.25 556.53 171.304 556.134 171.304C555.738 171.304 555.366 171.25 555.018 171.142C554.682 171.034 554.388 170.86 554.136 170.62C553.896 170.38 553.704 170.068 553.56 169.684C553.416 169.288 553.344 168.808 553.344 168.244ZM554.676 168.244C554.676 168.964 554.802 169.48 555.054 169.792C555.318 170.104 555.678 170.26 556.134 170.26C556.362 170.26 556.566 170.23 556.746 170.17C556.926 170.098 557.076 169.99 557.196 169.846C557.328 169.69 557.424 169.486 557.484 169.234C557.556 168.97 557.592 168.64 557.592 168.244C557.592 167.848 557.556 167.524 557.484 167.272C557.424 167.008 557.328 166.804 557.196 166.66C557.076 166.504 556.926 166.396 556.746 166.336C556.566 166.264 556.362 166.228 556.134 166.228C555.678 166.228 555.318 166.372 555.054 166.66C554.802 166.936 554.676 167.464 554.676 168.244ZM559.77 174.904C559.77 174.364 559.842 173.902 559.986 173.518C560.13 173.134 560.322 172.816 560.562 172.564C560.814 172.312 561.108 172.132 561.444 172.024C561.792 171.904 562.164 171.844 562.56 171.844C562.956 171.844 563.322 171.898 563.658 172.006C564.006 172.114 564.3 172.288 564.54 172.528C564.792 172.768 564.99 173.086 565.134 173.482C565.278 173.866 565.35 174.34 565.35 174.904C565.35 175.468 565.278 175.948 565.134 176.344C564.99 176.728 564.792 177.04 564.54 177.28C564.3 177.52 564.006 177.694 563.658 177.802C563.322 177.91 562.956 177.964 562.56 177.964C562.164 177.964 561.792 177.91 561.444 177.802C561.108 177.694 560.814 177.52 560.562 177.28C560.322 177.04 560.13 176.728 559.986 176.344C559.842 175.948 559.77 175.468 559.77 174.904ZM561.102 174.904C561.102 175.624 561.228 176.14 561.48 176.452C561.744 176.764 562.104 176.92 562.56 176.92C562.788 176.92 562.992 176.89 563.172 176.83C563.352 176.758 563.502 176.65 563.622 176.506C563.754 176.35 563.85 176.146 563.91 175.894C563.982 175.63 564.018 175.3 564.018 174.904C564.018 174.508 563.982 174.184 563.91 173.932C563.85 173.668 563.754 173.464 563.622 173.32C563.502 173.164 563.352 173.056 563.172 172.996C562.992 172.924 562.788 172.888 562.56 172.888C562.104 172.888 561.744 173.032 561.48 173.32C561.228 173.596 561.102 174.124 561.102 174.904ZM563.55 165.166L564.432 165.85L555.198 178.216L554.298 177.514L563.55 165.166Z" fill="#313131"/>
<rect opacity="0.5" x="349" y="160" width="143.922" height="24" rx="12" fill="#A68EFC"/>
<path d="M510.028 208.262C510.028 208.898 509.908 209.552 509.668 210.224C509.44 210.884 509.134 211.55 508.75 212.222C508.378 212.894 507.958 213.554 507.49 214.202C507.022 214.838 506.554 215.444 506.086 216.02L505.204 216.794V216.866L506.356 216.668H510.28V218H503.116V217.478C503.38 217.202 503.698 216.86 504.07 216.452C504.442 216.044 504.826 215.594 505.222 215.102C505.63 214.598 506.026 214.07 506.41 213.518C506.806 212.954 507.16 212.384 507.472 211.808C507.796 211.232 508.054 210.662 508.246 210.098C508.438 209.534 508.534 209 508.534 208.496C508.534 207.908 508.366 207.422 508.03 207.038C507.694 206.642 507.184 206.444 506.5 206.444C506.044 206.444 505.6 206.54 505.168 206.732C504.736 206.912 504.364 207.122 504.052 207.362L503.458 206.336C503.878 205.976 504.376 205.694 504.952 205.49C505.528 205.286 506.146 205.184 506.806 205.184C507.322 205.184 507.778 205.262 508.174 205.418C508.57 205.562 508.906 205.772 509.182 206.048C509.458 206.324 509.668 206.654 509.812 207.038C509.956 207.41 510.028 207.818 510.028 208.262ZM519.837 208.262C519.837 208.898 519.717 209.552 519.477 210.224C519.249 210.884 518.943 211.55 518.559 212.222C518.187 212.894 517.767 213.554 517.299 214.202C516.831 214.838 516.363 215.444 515.895 216.02L515.013 216.794V216.866L516.165 216.668H520.089V218H512.925V217.478C513.189 217.202 513.507 216.86 513.879 216.452C514.251 216.044 514.635 215.594 515.031 215.102C515.439 214.598 515.835 214.07 516.219 213.518C516.615 212.954 516.969 212.384 517.281 211.808C517.605 211.232 517.863 210.662 518.055 210.098C518.247 209.534 518.343 209 518.343 208.496C518.343 207.908 518.175 207.422 517.839 207.038C517.503 206.642 516.993 206.444 516.309 206.444C515.853 206.444 515.409 206.54 514.977 206.732C514.545 206.912 514.173 207.122 513.861 207.362L513.267 206.336C513.687 205.976 514.185 205.694 514.761 205.49C515.337 205.286 515.955 205.184 516.615 205.184C517.131 205.184 517.587 205.262 517.983 205.418C518.379 205.562 518.715 205.772 518.991 206.048C519.267 206.324 519.477 206.654 519.621 207.038C519.765 207.41 519.837 207.818 519.837 208.262ZM522.499 217.172C522.499 216.848 522.589 216.596 522.769 216.416C522.961 216.224 523.213 216.128 523.525 216.128C523.849 216.128 524.107 216.224 524.299 216.416C524.491 216.596 524.587 216.848 524.587 217.172C524.587 217.484 524.491 217.736 524.299 217.928C524.107 218.12 523.849 218.216 523.525 218.216C523.213 218.216 522.961 218.12 522.769 217.928C522.589 217.736 522.499 217.484 522.499 217.172ZM529.679 216.956C530.087 216.956 530.465 216.896 530.813 216.776C531.161 216.656 531.461 216.482 531.713 216.254C531.965 216.014 532.163 215.732 532.307 215.408C532.451 215.084 532.523 214.73 532.523 214.346C532.523 213.506 532.271 212.882 531.767 212.474C531.275 212.066 530.591 211.862 529.715 211.862H528.383V211.34L530.975 207.344L531.803 206.552L530.633 206.732H527.069V205.4H533.495V205.922L530.633 210.224L530.003 210.746V210.782L530.615 210.656C531.095 210.668 531.539 210.758 531.947 210.926C532.355 211.082 532.709 211.316 533.009 211.628C533.309 211.928 533.543 212.294 533.711 212.726C533.879 213.146 533.963 213.626 533.963 214.166C533.963 214.814 533.849 215.39 533.621 215.894C533.393 216.398 533.081 216.824 532.685 217.172C532.301 217.508 531.845 217.766 531.317 217.946C530.789 218.126 530.231 218.216 529.643 218.216C529.103 218.216 528.617 218.174 528.185 218.09C527.753 218.006 527.375 217.898 527.051 217.766L527.429 216.488C527.705 216.62 528.029 216.734 528.401 216.83C528.785 216.914 529.211 216.956 529.679 216.956ZM537.255 218L541.773 207.452L542.565 206.57L541.503 206.732H536.373V205.4H543.897V205.886L538.713 218H537.255ZM546.344 208.244C546.344 207.704 546.416 207.242 546.56 206.858C546.704 206.474 546.896 206.156 547.136 205.904C547.388 205.652 547.682 205.472 548.018 205.364C548.366 205.244 548.738 205.184 549.134 205.184C549.53 205.184 549.896 205.238 550.232 205.346C550.58 205.454 550.874 205.628 551.114 205.868C551.366 206.108 551.564 206.426 551.708 206.822C551.852 207.206 551.924 207.68 551.924 208.244C551.924 208.808 551.852 209.288 551.708 209.684C551.564 210.068 551.366 210.38 551.114 210.62C550.874 210.86 550.58 211.034 550.232 211.142C549.896 211.25 549.53 211.304 549.134 211.304C548.738 211.304 548.366 211.25 548.018 211.142C547.682 211.034 547.388 210.86 547.136 210.62C546.896 210.38 546.704 210.068 546.56 209.684C546.416 209.288 546.344 208.808 546.344 208.244ZM547.676 208.244C547.676 208.964 547.802 209.48 548.054 209.792C548.318 210.104 548.678 210.26 549.134 210.26C549.362 210.26 549.566 210.23 549.746 210.17C549.926 210.098 550.076 209.99 550.196 209.846C550.328 209.69 550.424 209.486 550.484 209.234C550.556 208.97 550.592 208.64 550.592 208.244C550.592 207.848 550.556 207.524 550.484 207.272C550.424 207.008 550.328 206.804 550.196 206.66C550.076 206.504 549.926 206.396 549.746 206.336C549.566 206.264 549.362 206.228 549.134 206.228C548.678 206.228 548.318 206.372 548.054 206.66C547.802 206.936 547.676 207.464 547.676 208.244ZM552.77 214.904C552.77 214.364 552.842 213.902 552.986 213.518C553.13 213.134 553.322 212.816 553.562 212.564C553.814 212.312 554.108 212.132 554.444 212.024C554.792 211.904 555.164 211.844 555.56 211.844C555.956 211.844 556.322 211.898 556.658 212.006C557.006 212.114 557.3 212.288 557.54 212.528C557.792 212.768 557.99 213.086 558.134 213.482C558.278 213.866 558.35 214.34 558.35 214.904C558.35 215.468 558.278 215.948 558.134 216.344C557.99 216.728 557.792 217.04 557.54 217.28C557.3 217.52 557.006 217.694 556.658 217.802C556.322 217.91 555.956 217.964 555.56 217.964C555.164 217.964 554.792 217.91 554.444 217.802C554.108 217.694 553.814 217.52 553.562 217.28C553.322 217.04 553.13 216.728 552.986 216.344C552.842 215.948 552.77 215.468 552.77 214.904ZM554.102 214.904C554.102 215.624 554.228 216.14 554.48 216.452C554.744 216.764 555.104 216.92 555.56 216.92C555.788 216.92 555.992 216.89 556.172 216.83C556.352 216.758 556.502 216.65 556.622 216.506C556.754 216.35 556.85 216.146 556.91 215.894C556.982 215.63 557.018 215.3 557.018 214.904C557.018 214.508 556.982 214.184 556.91 213.932C556.85 213.668 556.754 213.464 556.622 213.32C556.502 213.164 556.352 213.056 556.172 212.996C555.992 212.924 555.788 212.888 555.56 212.888C555.104 212.888 554.744 213.032 554.48 213.32C554.228 213.596 554.102 214.124 554.102 214.904ZM556.55 205.166L557.432 205.85L548.198 218.216L547.298 217.514L556.55 205.166Z" fill="#313131"/>
<rect opacity="0.45" x="357" y="200" width="128.894" height="24" rx="12" fill="#A68EFC"/>
<path d="M271.53 205.526C271.986 205.418 272.478 205.346 273.006 205.31C273.534 205.274 274.056 205.256 274.572 205.256C275.124 205.256 275.682 205.31 276.246 205.418C276.822 205.526 277.344 205.724 277.812 206.012C278.28 206.3 278.658 206.696 278.946 207.2C279.246 207.704 279.396 208.346 279.396 209.126C279.396 209.894 279.258 210.542 278.982 211.07C278.706 211.598 278.34 212.03 277.884 212.366C277.428 212.69 276.906 212.924 276.318 213.068C275.73 213.212 275.124 213.284 274.5 213.284C274.44 213.284 274.338 213.284 274.194 213.284C274.062 213.284 273.918 213.284 273.762 213.284C273.618 213.272 273.474 213.26 273.33 213.248C273.186 213.236 273.084 213.224 273.024 213.212V218H271.53V205.526ZM274.608 206.552C274.296 206.552 273.996 206.558 273.708 206.57C273.42 206.582 273.192 206.612 273.024 206.66V211.88C273.084 211.904 273.18 211.922 273.312 211.934C273.444 211.934 273.582 211.94 273.726 211.952C273.87 211.952 274.008 211.952 274.14 211.952C274.272 211.952 274.368 211.952 274.428 211.952C274.836 211.952 275.238 211.916 275.634 211.844C276.042 211.76 276.408 211.616 276.732 211.412C277.056 211.208 277.314 210.92 277.506 210.548C277.71 210.176 277.812 209.702 277.812 209.126C277.812 208.634 277.716 208.226 277.524 207.902C277.344 207.566 277.098 207.302 276.786 207.11C276.486 206.906 276.144 206.762 275.76 206.678C275.376 206.594 274.992 206.552 274.608 206.552ZM281.585 205.526C282.041 205.442 282.563 205.376 283.151 205.328C283.751 205.28 284.297 205.256 284.789 205.256C285.341 205.256 285.863 205.316 286.355 205.436C286.859 205.556 287.297 205.754 287.669 206.03C288.053 206.306 288.359 206.666 288.587 207.11C288.815 207.554 288.929 208.094 288.929 208.73C288.929 209.714 288.659 210.512 288.119 211.124C287.579 211.736 286.895 212.144 286.067 212.348L286.931 213.014L290.063 218H288.317L284.843 212.564L283.079 212.294V218H281.585V205.526ZM284.825 206.552C284.669 206.552 284.507 206.552 284.339 206.552C284.171 206.552 284.009 206.558 283.853 206.57C283.697 206.582 283.547 206.594 283.403 206.606C283.271 206.618 283.163 206.636 283.079 206.66V211.304H284.483C285.311 211.304 285.995 211.1 286.535 210.692C287.075 210.284 287.345 209.648 287.345 208.784C287.345 208.136 287.123 207.602 286.679 207.182C286.235 206.762 285.617 206.552 284.825 206.552ZM292.29 205.4H299.148V206.732H293.784V210.854H298.698V212.186H293.784V216.668H299.238V218H292.29V205.4ZM305.216 214.058L305.648 215.966H305.666L306.134 214.022L309.176 205.4H310.67L305.9 218.198H305.234L300.374 205.4H302.012L305.216 214.058ZM312.513 205.4H314.007V218H312.513V205.4ZM317.409 205.4H324.267V206.732H318.903V210.854H323.817V212.186H318.903V216.668H324.357V218H317.409V205.4ZM329.525 213.842L329.813 215.93H329.831L330.137 213.806L332.729 205.4H333.449L336.059 213.842L336.365 215.93H336.383L336.707 213.806L338.831 205.4H340.289L336.779 218.198H335.951L333.395 209.756L333.071 207.848H332.981L332.657 209.774L330.101 218.198H329.273L325.673 205.4H327.257L329.525 213.842Z" fill="#313131"/>
<path d="M476.944 257.668H479.464V248.956L479.644 247.894L478.924 248.74L476.944 250.162L476.26 249.244L480.22 246.184H480.868V257.668H483.334V259H476.944V257.668ZM489.021 257.956C489.429 257.956 489.807 257.896 490.155 257.776C490.503 257.656 490.803 257.482 491.055 257.254C491.307 257.014 491.505 256.732 491.649 256.408C491.793 256.084 491.865 255.73 491.865 255.346C491.865 254.506 491.613 253.882 491.109 253.474C490.617 253.066 489.933 252.862 489.057 252.862H487.725V252.34L490.317 248.344L491.145 247.552L489.975 247.732H486.411V246.4H492.837V246.922L489.975 251.224L489.345 251.746V251.782L489.957 251.656C490.437 251.668 490.881 251.758 491.289 251.926C491.697 252.082 492.051 252.316 492.351 252.628C492.651 252.928 492.885 253.294 493.053 253.726C493.221 254.146 493.305 254.626 493.305 255.166C493.305 255.814 493.191 256.39 492.963 256.894C492.735 257.398 492.423 257.824 492.027 258.172C491.643 258.508 491.187 258.766 490.659 258.946C490.131 259.126 489.573 259.216 488.985 259.216C488.445 259.216 487.959 259.174 487.527 259.09C487.095 259.006 486.717 258.898 486.393 258.766L486.771 257.488C487.047 257.62 487.371 257.734 487.743 257.83C488.127 257.914 488.553 257.956 489.021 257.956ZM495.499 258.172C495.499 257.848 495.589 257.596 495.769 257.416C495.961 257.224 496.213 257.128 496.525 257.128C496.849 257.128 497.107 257.224 497.299 257.416C497.491 257.596 497.587 257.848 497.587 258.172C497.587 258.484 497.491 258.736 497.299 258.928C497.107 259.12 496.849 259.216 496.525 259.216C496.213 259.216 495.961 259.12 495.769 258.928C495.589 258.736 495.499 258.484 495.499 258.172ZM500.411 257.668H502.931V248.956L503.111 247.894L502.391 248.74L500.411 250.162L499.727 249.244L503.687 246.184H504.335V257.668H506.801V259H500.411V257.668ZM512.109 257.956C512.937 257.956 513.621 257.716 514.161 257.236C514.701 256.756 514.971 256.06 514.971 255.148C514.971 254.272 514.701 253.618 514.161 253.186C513.633 252.754 512.901 252.538 511.965 252.538L510.453 252.628V246.4H516.069V247.732H511.803V251.314L512.577 251.278C513.765 251.29 514.701 251.62 515.385 252.268C516.069 252.916 516.411 253.846 516.411 255.058C516.411 255.73 516.297 256.33 516.069 256.858C515.841 257.374 515.529 257.806 515.133 258.154C514.749 258.502 514.293 258.766 513.765 258.946C513.237 259.126 512.673 259.216 512.073 259.216C511.533 259.216 511.077 259.186 510.705 259.126C510.333 259.066 509.985 258.976 509.661 258.856L510.039 257.632C510.315 257.74 510.609 257.824 510.921 257.884C511.245 257.932 511.641 257.956 512.109 257.956ZM519.344 249.244C519.344 248.704 519.416 248.242 519.56 247.858C519.704 247.474 519.896 247.156 520.136 246.904C520.388 246.652 520.682 246.472 521.018 246.364C521.366 246.244 521.738 246.184 522.134 246.184C522.53 246.184 522.896 246.238 523.232 246.346C523.58 246.454 523.874 246.628 524.114 246.868C524.366 247.108 524.564 247.426 524.708 247.822C524.852 248.206 524.924 248.68 524.924 249.244C524.924 249.808 524.852 250.288 524.708 250.684C524.564 251.068 524.366 251.38 524.114 251.62C523.874 251.86 523.58 252.034 523.232 252.142C522.896 252.25 522.53 252.304 522.134 252.304C521.738 252.304 521.366 252.25 521.018 252.142C520.682 252.034 520.388 251.86 520.136 251.62C519.896 251.38 519.704 251.068 519.56 250.684C519.416 250.288 519.344 249.808 519.344 249.244ZM520.676 249.244C520.676 249.964 520.802 250.48 521.054 250.792C521.318 251.104 521.678 251.26 522.134 251.26C522.362 251.26 522.566 251.23 522.746 251.17C522.926 251.098 523.076 250.99 523.196 250.846C523.328 250.69 523.424 250.486 523.484 250.234C523.556 249.97 523.592 249.64 523.592 249.244C523.592 248.848 523.556 248.524 523.484 248.272C523.424 248.008 523.328 247.804 523.196 247.66C523.076 247.504 522.926 247.396 522.746 247.336C522.566 247.264 522.362 247.228 522.134 247.228C521.678 247.228 521.318 247.372 521.054 247.66C520.802 247.936 520.676 248.464 520.676 249.244ZM525.77 255.904C525.77 255.364 525.842 254.902 525.986 254.518C526.13 254.134 526.322 253.816 526.562 253.564C526.814 253.312 527.108 253.132 527.444 253.024C527.792 252.904 528.164 252.844 528.56 252.844C528.956 252.844 529.322 252.898 529.658 253.006C530.006 253.114 530.3 253.288 530.54 253.528C530.792 253.768 530.99 254.086 531.134 254.482C531.278 254.866 531.35 255.34 531.35 255.904C531.35 256.468 531.278 256.948 531.134 257.344C530.99 257.728 530.792 258.04 530.54 258.28C530.3 258.52 530.006 258.694 529.658 258.802C529.322 258.91 528.956 258.964 528.56 258.964C528.164 258.964 527.792 258.91 527.444 258.802C527.108 258.694 526.814 258.52 526.562 258.28C526.322 258.04 526.13 257.728 525.986 257.344C525.842 256.948 525.77 256.468 525.77 255.904ZM527.102 255.904C527.102 256.624 527.228 257.14 527.48 257.452C527.744 257.764 528.104 257.92 528.56 257.92C528.788 257.92 528.992 257.89 529.172 257.83C529.352 257.758 529.502 257.65 529.622 257.506C529.754 257.35 529.85 257.146 529.91 256.894C529.982 256.63 530.018 256.3 530.018 255.904C530.018 255.508 529.982 255.184 529.91 254.932C529.85 254.668 529.754 254.464 529.622 254.32C529.502 254.164 529.352 254.056 529.172 253.996C528.992 253.924 528.788 253.888 528.56 253.888C528.104 253.888 527.744 254.032 527.48 254.32C527.228 254.596 527.102 255.124 527.102 255.904ZM529.55 246.166L530.432 246.85L521.198 259.216L520.298 258.514L529.55 246.166Z" fill="#313131"/>
<rect opacity="0.4" x="383" y="240" width="75.718" height="24" rx="12" fill="#A68EFC"/>
<rect opacity="0.25" x="400" y="280" width="41.038" height="24" rx="12" fill="#A68EFC"/>
<path d="M292.524 255.508H287.88L286.62 259H285.144L289.914 246.202H290.598L295.386 259H293.82L292.524 255.508ZM288.366 254.212H292.074L290.67 250.378L290.22 248.47H290.202L289.752 250.414L288.366 254.212ZM303.982 247.732H300.058V259H298.564V247.732H294.64V246.4H303.982V247.732ZM314.318 247.732H310.394V259H308.9V247.732H304.976V246.4H314.318V247.732ZM316.167 246.4H323.025V247.732H317.661V251.854H322.575V253.186H317.661V257.668H323.115V259H316.167V246.4ZM335.501 250.54L335.681 248.65H335.591L334.907 250.378L331.631 256.066H331.181L327.707 250.36L327.059 248.65H326.969L327.221 250.522V259H325.817V246.4H326.933L330.875 252.844L331.469 254.248H331.505L332.063 252.808L335.825 246.4H336.995V259H335.501V250.54ZM340.055 246.526C340.511 246.418 341.003 246.346 341.531 246.31C342.059 246.274 342.581 246.256 343.097 246.256C343.649 246.256 344.207 246.31 344.771 246.418C345.347 246.526 345.869 246.724 346.337 247.012C346.805 247.3 347.183 247.696 347.471 248.2C347.771 248.704 347.921 249.346 347.921 250.126C347.921 250.894 347.783 251.542 347.507 252.07C347.231 252.598 346.865 253.03 346.409 253.366C345.953 253.69 345.431 253.924 344.843 254.068C344.255 254.212 343.649 254.284 343.025 254.284C342.965 254.284 342.863 254.284 342.719 254.284C342.587 254.284 342.443 254.284 342.287 254.284C342.143 254.272 341.999 254.26 341.855 254.248C341.711 254.236 341.609 254.224 341.549 254.212V259H340.055V246.526ZM343.133 247.552C342.821 247.552 342.521 247.558 342.233 247.57C341.945 247.582 341.717 247.612 341.549 247.66V252.88C341.609 252.904 341.705 252.922 341.837 252.934C341.969 252.934 342.107 252.94 342.251 252.952C342.395 252.952 342.533 252.952 342.665 252.952C342.797 252.952 342.893 252.952 342.953 252.952C343.361 252.952 343.763 252.916 344.159 252.844C344.567 252.76 344.933 252.616 345.257 252.412C345.581 252.208 345.839 251.92 346.031 251.548C346.235 251.176 346.337 250.702 346.337 250.126C346.337 249.634 346.241 249.226 346.049 248.902C345.869 248.566 345.623 248.302 345.311 248.11C345.011 247.906 344.669 247.762 344.285 247.678C343.901 247.594 343.517 247.552 343.133 247.552ZM357.965 247.732H354.041V259H352.547V247.732H348.623V246.4H357.965V247.732Z" fill="#313131"/>
<path d="M458.818 298.02H461.32V290.91L461.59 289.686L460.726 290.748L459.124 291.846L458.134 290.496L462.238 287.184H463.552V298.02H466V300H458.818V298.02ZM469.031 298.02H471.533V290.91L471.803 289.686L470.939 290.748L469.337 291.846L468.347 290.496L472.451 287.184H473.765V298.02H476.213V300H469.031V298.02ZM478.344 290.244C478.344 289.704 478.422 289.242 478.578 288.858C478.734 288.474 478.95 288.156 479.226 287.904C479.502 287.652 479.832 287.472 480.216 287.364C480.612 287.244 481.038 287.184 481.494 287.184C481.95 287.184 482.37 287.238 482.754 287.346C483.138 287.454 483.468 287.628 483.744 287.868C484.032 288.108 484.254 288.426 484.41 288.822C484.566 289.206 484.65 289.68 484.662 290.244C484.65 290.808 484.566 291.288 484.41 291.684C484.254 292.068 484.032 292.38 483.744 292.62C483.468 292.86 483.138 293.034 482.754 293.142C482.37 293.25 481.95 293.304 481.494 293.304C481.038 293.304 480.612 293.25 480.216 293.142C479.832 293.034 479.502 292.86 479.226 292.62C478.95 292.38 478.734 292.068 478.578 291.684C478.422 291.288 478.344 290.808 478.344 290.244ZM480.432 290.244C480.432 291.276 480.786 291.792 481.494 291.792C481.866 291.792 482.13 291.684 482.286 291.468C482.454 291.24 482.544 290.832 482.556 290.244C482.544 289.668 482.454 289.266 482.286 289.038C482.13 288.81 481.866 288.696 481.494 288.696C481.122 288.696 480.852 288.81 480.684 289.038C480.516 289.266 480.432 289.668 480.432 290.244ZM485.652 296.904C485.652 296.364 485.73 295.902 485.886 295.518C486.042 295.134 486.258 294.816 486.534 294.564C486.81 294.312 487.14 294.132 487.524 294.024C487.92 293.904 488.346 293.844 488.802 293.844C489.258 293.844 489.678 293.898 490.062 294.006C490.446 294.114 490.776 294.288 491.052 294.528C491.34 294.768 491.562 295.086 491.718 295.482C491.874 295.866 491.958 296.34 491.97 296.904C491.958 297.468 491.874 297.948 491.718 298.344C491.562 298.728 491.34 299.04 491.052 299.28C490.776 299.52 490.446 299.694 490.062 299.802C489.678 299.91 489.258 299.964 488.802 299.964C488.346 299.964 487.92 299.91 487.524 299.802C487.14 299.694 486.81 299.52 486.534 299.28C486.258 299.04 486.042 298.728 485.886 298.344C485.73 297.948 485.652 297.468 485.652 296.904ZM487.74 296.904C487.74 297.936 488.094 298.452 488.802 298.452C489.174 298.452 489.438 298.344 489.594 298.128C489.762 297.9 489.852 297.492 489.864 296.904C489.852 296.328 489.762 295.926 489.594 295.698C489.438 295.47 489.174 295.356 488.802 295.356C488.43 295.356 488.16 295.47 487.992 295.698C487.824 295.926 487.74 296.328 487.74 296.904ZM489.612 287.148L490.926 288.336L480.558 300.252L479.244 299.01L489.612 287.148Z" fill="#313131"/>
<path d="M321.516 296.616C321.516 296.232 321.372 295.92 321.084 295.68C320.808 295.44 320.454 295.224 320.022 295.032C319.602 294.828 319.14 294.624 318.636 294.42C318.144 294.204 317.682 293.946 317.25 293.646C316.83 293.334 316.476 292.95 316.188 292.494C315.912 292.038 315.774 291.456 315.774 290.748C315.774 290.136 315.876 289.608 316.08 289.164C316.284 288.708 316.572 288.33 316.944 288.03C317.328 287.73 317.778 287.508 318.294 287.364C318.81 287.22 319.386 287.148 320.022 287.148C320.754 287.148 321.444 287.214 322.092 287.346C322.74 287.466 323.274 287.646 323.694 287.886L322.92 289.956C322.656 289.788 322.26 289.638 321.732 289.506C321.204 289.362 320.634 289.29 320.022 289.29C319.446 289.29 319.002 289.404 318.69 289.632C318.39 289.86 318.24 290.166 318.24 290.55C318.24 290.91 318.378 291.21 318.654 291.45C318.942 291.69 319.296 291.912 319.716 292.116C320.148 292.32 320.61 292.53 321.102 292.746C321.606 292.962 322.068 293.226 322.488 293.538C322.92 293.838 323.274 294.216 323.55 294.672C323.838 295.116 323.982 295.674 323.982 296.346C323.982 297.018 323.868 297.6 323.64 298.092C323.424 298.572 323.112 298.974 322.704 299.298C322.308 299.622 321.822 299.862 321.246 300.018C320.682 300.174 320.058 300.252 319.374 300.252C318.474 300.252 317.682 300.168 316.998 300C316.314 299.832 315.81 299.664 315.486 299.496L316.278 297.39C316.41 297.462 316.578 297.54 316.782 297.624C316.998 297.708 317.238 297.786 317.502 297.858C317.766 297.93 318.042 297.99 318.33 298.038C318.63 298.086 318.936 298.11 319.248 298.11C319.98 298.11 320.538 297.99 320.922 297.75C321.318 297.498 321.516 297.12 321.516 296.616ZM332.465 287.4H334.805V295.536C334.805 296.352 334.697 297.054 334.481 297.642C334.265 298.23 333.965 298.716 333.581 299.1C333.197 299.484 332.729 299.766 332.177 299.946C331.625 300.126 331.019 300.216 330.359 300.216C327.167 300.216 325.571 298.758 325.571 295.842V287.4H328.037V295.356C328.037 295.848 328.079 296.268 328.163 296.616C328.259 296.952 328.403 297.228 328.595 297.444C328.787 297.648 329.027 297.798 329.315 297.894C329.603 297.978 329.939 298.02 330.323 298.02C331.079 298.02 331.625 297.81 331.961 297.39C332.297 296.97 332.465 296.292 332.465 295.356V287.4ZM345.442 299.478C345.058 299.754 344.566 299.952 343.966 300.072C343.378 300.192 342.772 300.252 342.148 300.252C341.392 300.252 340.672 300.138 339.988 299.91C339.316 299.67 338.722 299.292 338.206 298.776C337.69 298.248 337.276 297.57 336.964 296.742C336.664 295.902 336.514 294.888 336.514 293.7C336.514 292.464 336.682 291.432 337.018 290.604C337.366 289.764 337.81 289.092 338.35 288.588C338.902 288.072 339.514 287.706 340.186 287.49C340.858 287.262 341.53 287.148 342.202 287.148C342.922 287.148 343.528 287.196 344.02 287.292C344.524 287.388 344.938 287.502 345.262 287.634L344.776 289.722C344.5 289.59 344.17 289.494 343.786 289.434C343.414 289.374 342.958 289.344 342.418 289.344C341.422 289.344 340.618 289.698 340.006 290.406C339.406 291.114 339.106 292.212 339.106 293.7C339.106 294.348 339.178 294.942 339.322 295.482C339.466 296.01 339.682 296.466 339.97 296.85C340.27 297.222 340.636 297.516 341.068 297.732C341.512 297.936 342.022 298.038 342.598 298.038C343.138 298.038 343.594 297.984 343.966 297.876C344.338 297.768 344.662 297.63 344.938 297.462L345.442 299.478ZM354.899 299.478C354.515 299.754 354.023 299.952 353.423 300.072C352.835 300.192 352.229 300.252 351.605 300.252C350.849 300.252 350.129 300.138 349.445 299.91C348.773 299.67 348.179 299.292 347.663 298.776C347.147 298.248 346.733 297.57 346.421 296.742C346.121 295.902 345.971 294.888 345.971 293.7C345.971 292.464 346.139 291.432 346.475 290.604C346.823 289.764 347.267 289.092 347.807 288.588C348.359 288.072 348.971 287.706 349.643 287.49C350.315 287.262 350.987 287.148 351.659 287.148C352.379 287.148 352.985 287.196 353.477 287.292C353.981 287.388 354.395 287.502 354.719 287.634L354.233 289.722C353.957 289.59 353.627 289.494 353.243 289.434C352.871 289.374 352.415 289.344 351.875 289.344C350.879 289.344 350.075 289.698 349.463 290.406C348.863 291.114 348.563 292.212 348.563 293.7C348.563 294.348 348.635 294.942 348.779 295.482C348.923 296.01 349.139 296.466 349.427 296.85C349.727 297.222 350.093 297.516 350.525 297.732C350.969 297.936 351.479 298.038 352.055 298.038C352.595 298.038 353.051 297.984 353.423 297.876C353.795 297.768 354.119 297.63 354.395 297.462L354.899 299.478ZM356.422 287.4H363.892V289.596H358.888V292.53H363.442V294.726H358.888V297.804H363.982V300H356.422V287.4ZM371.262 296.616C371.262 296.232 371.118 295.92 370.83 295.68C370.554 295.44 370.2 295.224 369.768 295.032C369.348 294.828 368.886 294.624 368.382 294.42C367.89 294.204 367.428 293.946 366.996 293.646C366.576 293.334 366.222 292.95 365.934 292.494C365.658 292.038 365.52 291.456 365.52 290.748C365.52 290.136 365.622 289.608 365.826 289.164C366.03 288.708 366.318 288.33 366.69 288.03C367.074 287.73 367.524 287.508 368.04 287.364C368.556 287.22 369.132 287.148 369.768 287.148C370.5 287.148 371.19 287.214 371.838 287.346C372.486 287.466 373.02 287.646 373.44 287.886L372.666 289.956C372.402 289.788 372.006 289.638 371.478 289.506C370.95 289.362 370.38 289.29 369.768 289.29C369.192 289.29 368.748 289.404 368.436 289.632C368.136 289.86 367.986 290.166 367.986 290.55C367.986 290.91 368.124 291.21 368.4 291.45C368.688 291.69 369.042 291.912 369.462 292.116C369.894 292.32 370.356 292.53 370.848 292.746C371.352 292.962 371.814 293.226 372.234 293.538C372.666 293.838 373.02 294.216 373.296 294.672C373.584 295.116 373.728 295.674 373.728 296.346C373.728 297.018 373.614 297.6 373.386 298.092C373.17 298.572 372.858 298.974 372.45 299.298C372.054 299.622 371.568 299.862 370.992 300.018C370.428 300.174 369.804 300.252 369.12 300.252C368.22 300.252 367.428 300.168 366.744 300C366.06 299.832 365.556 299.664 365.232 299.496L366.024 297.39C366.156 297.462 366.324 297.54 366.528 297.624C366.744 297.708 366.984 297.786 367.248 297.858C367.512 297.93 367.788 297.99 368.076 298.038C368.376 298.086 368.682 298.11 368.994 298.11C369.726 298.11 370.284 297.99 370.668 297.75C371.064 297.498 371.262 297.12 371.262 296.616ZM380.807 296.616C380.807 296.232 380.663 295.92 380.375 295.68C380.099 295.44 379.745 295.224 379.313 295.032C378.893 294.828 378.431 294.624 377.927 294.42C377.435 294.204 376.973 293.946 376.541 293.646C376.121 293.334 375.767 292.95 375.479 292.494C375.203 292.038 375.065 291.456 375.065 290.748C375.065 290.136 375.167 289.608 375.371 289.164C375.575 288.708 375.863 288.33 376.235 288.03C376.619 287.73 377.069 287.508 377.585 287.364C378.101 287.22 378.677 287.148 379.313 287.148C380.045 287.148 380.735 287.214 381.383 287.346C382.031 287.466 382.565 287.646 382.985 287.886L382.211 289.956C381.947 289.788 381.551 289.638 381.023 289.506C380.495 289.362 379.925 289.29 379.313 289.29C378.737 289.29 378.293 289.404 377.981 289.632C377.681 289.86 377.531 290.166 377.531 290.55C377.531 290.91 377.669 291.21 377.945 291.45C378.233 291.69 378.587 291.912 379.007 292.116C379.439 292.32 379.901 292.53 380.393 292.746C380.897 292.962 381.359 293.226 381.779 293.538C382.211 293.838 382.565 294.216 382.841 294.672C383.129 295.116 383.273 295.674 383.273 296.346C383.273 297.018 383.159 297.6 382.931 298.092C382.715 298.572 382.403 298.974 381.995 299.298C381.599 299.622 381.113 299.862 380.537 300.018C379.973 300.174 379.349 300.252 378.665 300.252C377.765 300.252 376.973 300.168 376.289 300C375.605 299.832 375.101 299.664 374.777 299.496L375.569 297.39C375.701 297.462 375.869 297.54 376.073 297.624C376.289 297.708 376.529 297.786 376.793 297.858C377.057 297.93 377.333 297.99 377.621 298.038C377.921 298.086 378.227 298.11 378.539 298.11C379.271 298.11 379.829 297.99 380.213 297.75C380.609 297.498 380.807 297.12 380.807 296.616Z" fill="#313131"/>
</svg>
