<svg width="76" height="80" viewBox="0 0 76 80" fill="none" xmlns="http://www.w3.org/2000/svg">
<path d="M18 28V14.8571C18 8.86091 22.8609 4 28.8571 4H47.1429C53.1391 4 58 8.86091 58 14.8571V28" stroke="url(#paint0_linear_740_80)" stroke-width="8"/>
<rect y="28" width="76" height="52" rx="12" fill="url(#paint1_radial_740_80)"/>
<path fill-rule="evenodd" clip-rule="evenodd" d="M41.8964 57.8011C44.267 56.4298 45.862 53.8667 45.862 50.931C45.862 46.5508 42.3112 43 37.931 43C33.5508 43 30 46.5508 30 50.931C30 53.8665 31.5949 56.4296 33.9654 57.8009V64.0345C33.9654 66.2246 35.7408 68.0001 37.9309 68.0001C40.121 68.0001 41.8964 66.2246 41.8964 64.0345V57.8011Z" fill="url(#paint2_radial_740_80)"/>
<defs>
<linearGradient id="paint0_linear_740_80" x1="38" y1="31.3333" x2="38" y2="5.33334" gradientUnits="userSpaceOnUse">
<stop stop-color="#848484"/>
<stop offset="1" stop-color="#B1B1B1"/>
</linearGradient>
<radialGradient id="paint1_radial_740_80" cx="0" cy="0" r="1" gradientUnits="userSpaceOnUse" gradientTransform="translate(38 43.4684) rotate(90) scale(36.5316 50.5696)">
<stop stop-color="#F9F9F9"/>
<stop offset="1" stop-color="#E2E2E2"/>
</radialGradient>
<radialGradient id="paint2_radial_740_80" cx="0" cy="0" r="1" gradientUnits="userSpaceOnUse" gradientTransform="translate(38.2615 58.1042) rotate(-45.5624) scale(8.02391 8.79457)">
<stop stop-color="#B0B0B0"/>
<stop offset="1" stop-color="#8D8D8D"/>
</radialGradient>
</defs>
</svg>
